<svg xmlns="http://www.w3.org/2000/svg" xmlns:xlink="http://www.w3.org/1999/xlink" width="1920" zoomAndPan="magnify" viewBox="0 0 1440 809.999993" height="1080" preserveAspectRatio="xMidYMid meet" version="1.0"><defs><clipPath id="750684bc0e"><path d="M 426.25 139 L 747.25 139 L 747.25 745.019531 L 426.25 745.019531 Z M 426.25 139 " clip-rule="nonzero"/></clipPath><clipPath id="61c7f06111"><path d="M 747.117188 394 L 966 394 L 966 690 L 747.117188 690 Z M 747.117188 394 " clip-rule="nonzero"/></clipPath><clipPath id="68a32b2e7f"><path d="M 747.117188 204 L 751 204 L 751 294 L 747.117188 294 Z M 747.117188 204 " clip-rule="nonzero"/></clipPath><clipPath id="10f7329cb5"><path d="M 747.117188 82 L 848 82 L 848 241 L 747.117188 241 Z M 747.117188 82 " clip-rule="nonzero"/></clipPath><clipPath id="b4aca0ab1a"><path d="M 747.117188 301 L 757 301 L 757 643 L 747.117188 643 Z M 747.117188 301 " clip-rule="nonzero"/></clipPath><clipPath id="14d837ccf4"><path d="M 732.164062 40.496094 L 869.414062 40.496094 L 869.414062 155.246094 L 732.164062 155.246094 Z M 732.164062 40.496094 " clip-rule="nonzero"/></clipPath><clipPath id="9799847b51"><path d="M 739.582031 138.273438 L 785.332031 138.273438 L 785.332031 225.273438 L 739.582031 225.273438 Z M 739.582031 138.273438 " clip-rule="nonzero"/></clipPath><clipPath id="0a8d5242b7"><path d="M 737.292969 210.640625 L 756.792969 210.640625 L 756.792969 275.140625 L 737.292969 275.140625 Z M 737.292969 210.640625 " clip-rule="nonzero"/></clipPath><clipPath id="9824390c24"><path d="M 739.582031 434.570312 L 759.082031 434.570312 L 759.082031 543.320312 L 739.582031 543.320312 Z M 739.582031 434.570312 " clip-rule="nonzero"/></clipPath><clipPath id="b2d1b3a1b2"><path d="M 739 413 L 758 413 L 758 437 L 739 437 Z M 739 413 " clip-rule="nonzero"/></clipPath><clipPath id="955f0ce645"><path d="M 732.164062 417.480469 L 746.382812 409.109375 L 757.800781 428.496094 L 743.582031 436.867188 Z M 732.164062 417.480469 " clip-rule="nonzero"/></clipPath><clipPath id="43fec8a27b"><path d="M 740 425 L 769 425 L 769 447 L 740 447 Z M 740 425 " clip-rule="nonzero"/></clipPath><clipPath id="8fad30b09a"><path d="M 737.292969 427.21875 L 766.25 423.101562 L 768.996094 442.40625 L 740.039062 446.527344 Z M 737.292969 427.21875 " clip-rule="nonzero"/></clipPath><clipPath id="ab713b5ccd"><path d="M 742 382 L 765 382 L 765 400 L 742 400 Z M 742 382 " clip-rule="nonzero"/></clipPath><clipPath id="b3f5891f53"><path d="M 742.242188 399.960938 L 741.820312 383.46875 L 764.316406 382.894531 L 764.734375 399.390625 Z M 742.242188 399.960938 " clip-rule="nonzero"/></clipPath><clipPath id="75f1f38e10"><path d="M 739.582031 360.578125 L 756.832031 360.578125 L 756.832031 391.328125 L 739.582031 391.328125 Z M 739.582031 360.578125 " clip-rule="nonzero"/></clipPath><clipPath id="ee45cd9903"><path d="M 734 341 L 759 341 L 759 368 L 734 368 Z M 734 341 " clip-rule="nonzero"/></clipPath><clipPath id="02f6f2d6f9"><path d="M 734.402344 348.316406 L 748.585938 341.464844 L 758.042969 361.054688 L 743.859375 367.902344 Z M 734.402344 348.316406 " clip-rule="nonzero"/></clipPath><clipPath id="83f0f26b5e"><path d="M 734.015625 313.824219 L 748.265625 313.824219 L 748.265625 346.824219 L 734.015625 346.824219 Z M 734.015625 313.824219 " clip-rule="nonzero"/></clipPath><clipPath id="862b445c31"><path d="M 731 327 L 752 327 L 752 352 L 731 352 Z M 731 327 " clip-rule="nonzero"/></clipPath><clipPath id="6b6b331bd8"><path d="M 731.566406 330.113281 L 747.046875 327.214844 L 751.046875 348.59375 L 735.566406 351.492188 Z M 731.566406 330.113281 " clip-rule="nonzero"/></clipPath><clipPath id="965a0d9b82"><path d="M 733 317 L 750 317 L 750 331 L 733 331 Z M 733 317 " clip-rule="nonzero"/></clipPath><clipPath id="f9fe86b63f"><path d="M 735.101562 317.347656 L 749.289062 318.671875 L 748.171875 330.621094 L 733.984375 329.292969 Z M 735.101562 317.347656 " clip-rule="nonzero"/></clipPath></defs><g clip-path="url(#750684bc0e)"><path fill="#000000" d="M 830 139.59375 C 828.195312 139.550781 826.375 139.574219 824.539062 139.679688 C 790.257812 142.398438 763.601562 172.3125 763.601562 207.117188 L 763.601562 607.394531 C 763.601562 616.640625 770.675781 623.710938 779.925781 623.710938 C 789.175781 623.710938 796.25 616.640625 796.25 607.394531 L 796.25 206.035156 C 796.25 189.71875 807.671875 175.027344 823.996094 172.308594 C 842.496094 169.589844 858.824219 182.652344 861 200.054688 C 849.574219 212.5625 841.957031 228.875 841.957031 247.367188 C 841.957031 255.523438 846.855469 262.59375 855.015625 264.222656 C 865.355469 266.398438 874.601562 258.238281 874.601562 248.449219 C 874.601562 227.78125 890.921875 210.921875 911.597656 210.378906 C 932.273438 210.921875 948.601562 227.78125 948.601562 248.449219 C 948.601562 252.257812 948.050781 256.070312 946.964844 259.878906 C 945.332031 264.773438 946.421875 270.753906 949.683594 274.558594 C 952.949219 278.910156 957.847656 281.082031 963.289062 281.082031 L 964.925781 281.082031 C 988.867188 281.082031 1008.453125 300.660156 1008.453125 324.589844 C 1008.453125 331.117188 1006.824219 337.101562 1004.648438 342.542969 L 987.230469 342.542969 C 979.070312 342.542969 972 347.980469 970.367188 355.597656 C 968.1875 365.929688 976.351562 375.171875 986.148438 375.171875 L 1007.910156 375.171875 C 1033.484375 393.664062 1043.28125 427.925781 1026.957031 460.011719 C 1024.78125 464.363281 1021.515625 467.625 1018.792969 470.890625 C 1012.265625 477.960938 1013.351562 489.382812 1021.515625 494.820312 C 1028.589844 499.714844 1038.378906 498.085938 1043.820312 492.101562 C 1059.058594 474.15625 1067.765625 451.308594 1067.765625 427.921875 C 1067.765625 399.640625 1055.796875 372.992188 1034.574219 354.503906 C 1038.382812 345.257812 1040.558594 334.921875 1040.558594 324.589844 C 1040.558594 288.152344 1014.984375 257.699219 980.707031 250.085938 L 980.707031 248.449219 C 980.707031 210.921875 951.316406 180.46875 914.316406 177.75 L 909.972656 177.75 C 902.898438 177.75 895.820312 178.84375 889.289062 181.019531 C 880.109375 157.054688 857.054688 140.253906 830 139.59375 Z M 665.660156 139.679688 C 637.910156 139.679688 614.515625 156.546875 604.722656 181.019531 C 598.195312 178.84375 591.117188 177.75 584.042969 177.75 C 544.867188 177.75 513.308594 209.292969 513.308594 248.449219 L 513.308594 249.003906 C 479.027344 256.617188 452.910156 287.066406 452.910156 323.507812 C 452.910156 334.382812 455.085938 344.710938 459.4375 354.503906 C 438.761719 372.992188 426.25 399.640625 426.25 427.921875 C 426.25 453.484375 436.042969 476.875 452.910156 494.820312 C 452.910156 510.59375 453.453125 534.519531 453.453125 536.695312 C 453.453125 588.359375 494.265625 631.324219 545.410156 634.589844 C 561.734375 667.765625 595.46875 688.976562 633.011719 688.976562 C 686.878906 688.976562 730.953125 644.921875 730.953125 591.082031 L 730.953125 204.941406 C 730.953125 169.046875 701.570312 139.679688 665.660156 139.679688 Z M 665.660156 172.308594 C 683.617188 172.308594 698.308594 186.992188 698.308594 204.941406 L 698.308594 591.082031 C 698.308594 626.976562 668.925781 656.34375 633.011719 656.34375 C 605.261719 656.34375 580.773438 638.941406 571.523438 612.835938 C 569.347656 605.765625 562.273438 601.414062 555.199219 601.957031 L 551.394531 601.957031 C 515.484375 601.957031 486.101562 572.589844 486.101562 536.695312 C 486.101562 535.605469 486.097656 527.457031 486.644531 518.210938 C 498.070312 523.105469 511.128906 525.816406 524.1875 525.816406 C 578.058594 525.816406 622.128906 481.765625 622.128906 427.921875 L 622.128906 400.730469 C 622.128906 391.484375 615.058594 384.414062 605.808594 384.414062 C 596.558594 384.414062 589.484375 391.484375 589.484375 400.730469 L 589.484375 427.921875 C 589.484375 463.816406 560.101562 493.1875 524.1875 493.1875 C 511.675781 493.1875 499.703125 489.386719 489.363281 482.859375 C 470.320312 470.894531 458.894531 450.222656 458.894531 427.921875 C 458.894531 406.710938 469.234375 387.683594 486.101562 375.171875 L 507.867188 375.171875 C 517.117188 375.171875 524.1875 368.101562 524.1875 358.855469 C 524.1875 349.613281 517.117188 342.542969 507.867188 342.542969 L 490.457031 342.542969 C 487.195312 336.558594 485.558594 330.035156 485.558594 322.964844 C 485.558594 301.753906 500.792969 284.347656 520.925781 280.539062 C 532.898438 303.382812 556.292969 319.152344 584.042969 319.152344 C 593.292969 319.152344 600.367188 312.082031 600.367188 302.835938 C 600.367188 293.589844 593.292969 286.519531 584.042969 286.519531 C 567.175781 286.519531 552.488281 275.105469 547.589844 259.878906 C 547.046875 258.246094 546.496094 256.613281 546.496094 254.980469 L 546.496094 253.886719 C 546.496094 252.257812 545.953125 250.625 545.953125 248.449219 C 545.953125 227.238281 562.820312 210.378906 584.042969 210.378906 C 592.203125 210.378906 600.363281 213.101562 606.890625 217.996094 C 611.789062 221.804688 618.324219 222.351562 623.765625 219.632812 C 629.207031 216.914062 633.011719 211.46875 633.011719 204.941406 L 633.011719 204.398438 C 633.011719 186.453125 647.703125 172.308594 665.660156 172.308594 Z M 856.101562 307.191406 C 846.851562 307.191406 839.777344 314.261719 839.777344 323.507812 L 839.777344 345.261719 C 839.777344 354.507812 846.851562 361.578125 856.101562 361.578125 C 865.351562 361.578125 872.425781 354.507812 872.425781 345.261719 L 872.425781 323.507812 C 872.425781 314.261719 865.351562 307.191406 856.101562 307.191406 Z M 856.101562 412.160156 C 846.851562 412.160156 839.777344 419.230469 839.777344 428.476562 C 839.777344 441.527344 842.5 454.582031 847.398438 466.546875 C 850.117188 472.527344 856.097656 476.328125 862.625 476.328125 C 864.800781 476.328125 866.988281 475.789062 868.621094 475.246094 C 876.78125 471.980469 880.589844 462.191406 877.324219 454.03125 C 874.058594 445.875 872.425781 437.175781 872.425781 428.476562 C 872.425781 419.230469 865.351562 412.160156 856.101562 412.160156 Z M 948.601562 506.78125 C 938.808594 506.78125 930.097656 511.679688 925.199219 519.835938 L 809.851562 711.824219 C 804.953125 720.523438 804.410156 730.316406 809.308594 739.015625 C 814.207031 747.71875 822.914062 752.613281 833.253906 752.613281 L 1063.40625 752.613281 C 1073.203125 752.613281 1082.453125 747.71875 1087.351562 739.015625 C 1092.25 730.859375 1092.25 720.523438 1087.351562 711.824219 L 972.003906 519.835938 C 967.105469 511.679688 958.394531 506.78125 948.601562 506.78125 Z M 948.601562 573.679688 C 957.851562 573.679688 964.925781 580.75 964.925781 589.996094 L 964.925781 644.382812 C 964.925781 653.628906 957.851562 660.699219 948.601562 660.699219 C 939.351562 660.699219 932.277344 653.628906 932.277344 644.382812 L 932.277344 589.996094 C 932.277344 580.75 939.351562 573.679688 948.601562 573.679688 Z M 948.601562 682.453125 C 957.851562 682.453125 964.925781 689.523438 964.925781 698.769531 C 964.925781 708.015625 957.851562 715.085938 948.601562 715.085938 C 939.351562 715.085938 932.277344 708.015625 932.277344 698.769531 C 932.277344 689.523438 939.351562 682.453125 948.601562 682.453125 Z M 948.601562 682.453125 " fill-opacity="1" fill-rule="nonzero"/></g><g clip-path="url(#61c7f06111)"><path fill="#000000" d="M 843.253906 617.972656 C 833.296875 596.34375 825.84375 572.691406 818.332031 548.863281 C 801.746094 496.269531 784.867188 442.753906 741.25 416.5625 C 735.5 413.125 733.628906 405.667969 737.066406 399.921875 C 740.296875 394.519531 747.0625 392.539062 752.632812 395.164062 L 754.316406 395.875 C 794.683594 412.890625 823.902344 425.207031 873.515625 437.652344 C 878.140625 438.8125 885.300781 439.871094 893.277344 441.050781 C 921.703125 445.242188 958.890625 450.738281 964.390625 473.902344 C 967.699219 487.863281 961.636719 503.421875 954.847656 520.863281 C 949.863281 533.675781 944.40625 547.691406 943.050781 560.929688 C 941.640625 574.710938 945.683594 592.765625 949.546875 610.035156 C 952.292969 622.304688 954.964844 634.214844 955.859375 644.609375 C 956.78125 655.320312 955.9375 665.011719 951.828125 673.046875 C 947.113281 682.28125 938.96875 688.441406 925.839844 690.292969 C 879.539062 696.8125 858.984375 652.109375 843.816406 619.140625 L 843.273438 617.964844 Z M 841.53125 541.640625 C 848.804688 564.71875 856.027344 587.632812 865.316406 607.796875 L 865.296875 607.808594 L 865.316406 607.847656 L 865.875 609.058594 C 877.820312 635.035156 894.015625 670.25 922.515625 666.238281 C 926.777344 665.640625 929.164062 664.144531 930.246094 662.015625 C 931.949219 658.6875 932.179688 653.289062 931.613281 646.699219 C 930.800781 637.273438 928.367188 626.433594 925.875 615.261719 C 921.585938 596.105469 917.097656 576.0625 918.902344 558.460938 C 920.585938 542.003906 926.660156 526.390625 932.21875 512.121094 C 937.546875 498.429688 942.296875 486.21875 940.710938 479.511719 C 939.015625 472.378906 911.101562 468.257812 889.761719 465.105469 C 881.164062 463.839844 873.453125 462.699219 867.617188 461.234375 C 840.546875 454.445312 819.367188 447.6875 799.25 440.226562 C 818.886719 469.824219 830.265625 505.929688 841.53125 541.640625 " fill-opacity="1" fill-rule="nonzero"/></g><path fill="#000000" d="M 950.328125 155.835938 C 921.589844 155.835938 876.8125 185.023438 839.152344 221.855469 C 802.523438 257.683594 773.460938 299.914062 773.460938 328.550781 C 773.460938 349.664062 790.699219 365.121094 814.726562 376.121094 C 852.953125 393.628906 907.167969 399.632812 943.097656 399.632812 C 957.980469 399.632812 962.578125 396.636719 962.578125 391.46875 C 962.578125 384.421875 959.433594 374.128906 955.769531 362.15625 C 949.996094 343.273438 943.097656 320.703125 943.097656 295.714844 C 943.097656 271.453125 950.449219 245.191406 957.238281 220.953125 C 962.609375 201.75 967.601562 183.925781 967.601562 171.222656 C 967.601562 161.847656 963.371094 155.835938 950.328125 155.835938 Z M 822.136719 204.457031 C 863.753906 163.75 915.058594 131.492188 950.328125 131.492188 C 981.757812 131.492188 991.945312 147.015625 991.945312 171.222656 C 991.945312 187.085938 986.496094 206.554688 980.628906 227.511719 C 974.300781 250.121094 967.441406 274.617188 967.441406 295.714844 C 967.441406 317.402344 973.722656 337.933594 978.972656 355.121094 C 983.246094 369.101562 986.921875 381.121094 986.921875 391.46875 C 986.921875 412.035156 976.578125 423.976562 943.097656 423.976562 C 904.792969 423.976562 846.589844 417.386719 804.652344 398.183594 C 772.3125 383.371094 749.117188 361.089844 749.117188 328.550781 C 749.117188 293.007812 781.417969 244.277344 822.136719 204.457031 " fill-opacity="1" fill-rule="nonzero"/><g clip-path="url(#68a32b2e7f)"><path fill="#000000" d="M 714.109375 204.066406 C 725 204.066406 733.808594 211.984375 740.019531 222.566406 C 746.433594 233.488281 750.511719 248.179688 750.511719 257.492188 C 750.511719 274.792969 740.84375 285.949219 728.46875 290.886719 C 723.820312 292.742188 718.867188 293.679688 714 293.679688 C 709.15625 293.679688 704.214844 292.742188 699.566406 290.886719 L 699.523438 290.886719 C 687.148438 285.949219 677.480469 274.792969 677.480469 257.492188 C 677.480469 248.148438 681.613281 233.464844 688.074219 222.566406 C 694.34375 211.988281 703.210938 204.066406 714.109375 204.066406 Z M 719.101562 234.832031 C 716.945312 231.160156 714.992188 228.40625 714.109375 228.40625 C 713.207031 228.40625 711.199219 231.199219 708.996094 234.925781 C 704.621094 242.304688 701.824219 251.75 701.824219 257.492188 C 701.824219 263.242188 704.777344 266.847656 708.554688 268.355469 L 708.550781 268.367188 C 710.175781 269.015625 712.039062 269.335938 714 269.335938 C 715.941406 269.335938 717.804688 269.007812 719.433594 268.355469 C 723.214844 266.847656 726.167969 263.242188 726.167969 257.492188 C 726.167969 251.691406 723.425781 242.195312 719.101562 234.832031 " fill-opacity="1" fill-rule="nonzero"/></g><g clip-path="url(#10f7329cb5)"><path fill="#000000" d="M 743.617188 231.257812 C 742.039062 237.769531 735.484375 241.777344 728.972656 240.195312 C 722.460938 238.621094 718.460938 232.0625 720.035156 225.550781 C 725.859375 201.554688 740.582031 162.679688 764.859375 131.382812 C 782.335938 108.867188 804.789062 90.089844 832.621094 82.78125 C 839.109375 81.074219 845.742188 84.949219 847.453125 91.4375 C 849.160156 97.921875 845.285156 104.566406 838.796875 106.269531 C 816.820312 112.039062 798.578125 127.523438 784.070312 146.222656 C 762.175781 174.433594 748.878906 209.566406 743.617188 231.257812 " fill-opacity="1" fill-rule="nonzero"/></g><g clip-path="url(#b4aca0ab1a)"><path fill="#000000" d="M 714 301.4375 C 726.324219 301.4375 737.492188 301.566406 746.351562 319.265625 C 752.675781 331.910156 756.597656 355.566406 756.597656 401.308594 C 756.597656 460.636719 745.847656 546.472656 736.679688 595.234375 C 734.453125 607.0625 732.3125 616.792969 730.417969 623.554688 C 726.746094 636.652344 720.738281 643.425781 712.347656 642.109375 L 712.304688 642.109375 C 710.742188 641.863281 709.257812 641.335938 707.867188 640.507812 L 707.816406 640.507812 C 701.242188 636.640625 689.171875 587.097656 681.425781 528.898438 C 675.828125 486.785156 671.394531 439.292969 671.394531 401.308594 C 671.394531 355.566406 675.3125 331.910156 681.640625 319.265625 C 690.5 301.566406 701.667969 301.4375 714 301.4375 Z M 724.671875 330.105469 C 722.523438 325.804688 718.472656 325.78125 714 325.78125 C 709.515625 325.78125 705.472656 325.804688 703.320312 330.105469 C 698.636719 339.464844 695.738281 359.667969 695.738281 401.308594 C 695.738281 438.570312 700.042969 484.851562 705.488281 525.765625 C 708.480469 548.257812 711.414062 568.835938 713.875 584.941406 C 722.574219 536.566406 732.253906 457.03125 732.253906 401.308594 C 732.253906 359.667969 729.351562 339.464844 724.671875 330.105469 " fill-opacity="1" fill-rule="nonzero"/></g><g clip-path="url(#14d837ccf4)"><path fill="#ffffff" d="M 732.164062 40.496094 L 869.414062 40.496094 L 869.414062 155.246094 L 732.164062 155.246094 L 732.164062 40.496094 " fill-opacity="1" fill-rule="nonzero"/></g><g clip-path="url(#9799847b51)"><path fill="#ffffff" d="M 739.582031 138.277344 L 785.332031 138.277344 L 785.332031 225.265625 L 739.582031 225.265625 L 739.582031 138.277344 " fill-opacity="1" fill-rule="nonzero"/></g><g clip-path="url(#0a8d5242b7)"><path fill="#ffffff" d="M 737.292969 210.652344 L 756.792969 210.652344 L 756.792969 275.128906 L 737.292969 275.128906 L 737.292969 210.652344 " fill-opacity="1" fill-rule="nonzero"/></g><g clip-path="url(#9824390c24)"><path fill="#ffffff" d="M 739.582031 434.59375 L 759.082031 434.59375 L 759.082031 543.300781 L 739.582031 543.300781 L 739.582031 434.59375 " fill-opacity="1" fill-rule="nonzero"/></g><g clip-path="url(#b2d1b3a1b2)"><g clip-path="url(#955f0ce645)"><path fill="#ffffff" d="M 739.277344 413.296875 L 757.796875 428.488281 L 743.582031 436.863281 L 739.277344 413.296875 " fill-opacity="1" fill-rule="nonzero"/></g></g><g clip-path="url(#43fec8a27b)"><g clip-path="url(#8fad30b09a)"><path fill="#ffffff" d="M 751.769531 425.160156 L 768.996094 442.40625 L 740.039062 446.527344 L 751.769531 425.160156 " fill-opacity="1" fill-rule="nonzero"/></g></g><g clip-path="url(#ab713b5ccd)"><g clip-path="url(#b3f5891f53)"><path fill="#ffffff" d="M 742.035156 391.714844 L 764.308594 382.894531 L 764.730469 399.390625 L 742.035156 391.714844 " fill-opacity="1" fill-rule="nonzero"/></g></g><g clip-path="url(#75f1f38e10)"><path fill="#ffffff" d="M 739.582031 360.578125 L 756.832031 360.578125 L 756.832031 391.324219 L 739.582031 391.324219 L 739.582031 360.578125 " fill-opacity="1" fill-rule="nonzero"/></g><g clip-path="url(#ee45cd9903)"><g clip-path="url(#02f6f2d6f9)"><path fill="#ffffff" d="M 734.402344 348.316406 L 748.585938 341.46875 L 758.042969 361.050781 L 743.859375 367.898438 L 734.402344 348.316406 " fill-opacity="1" fill-rule="nonzero"/></g></g><g clip-path="url(#83f0f26b5e)"><path fill="#ffffff" d="M 734.015625 313.828125 L 748.265625 313.828125 L 748.265625 346.820312 L 734.015625 346.820312 L 734.015625 313.828125 " fill-opacity="1" fill-rule="nonzero"/></g><g clip-path="url(#862b445c31)"><g clip-path="url(#6b6b331bd8)"><path fill="#ffffff" d="M 731.566406 330.113281 L 747.046875 327.21875 L 751.046875 348.59375 L 735.566406 351.488281 L 731.566406 330.113281 " fill-opacity="1" fill-rule="nonzero"/></g></g><g clip-path="url(#965a0d9b82)"><g clip-path="url(#f9fe86b63f)"><path fill="#ffffff" d="M 735.101562 317.347656 L 749.289062 318.671875 L 748.171875 330.621094 L 733.984375 329.292969 L 735.101562 317.347656 " fill-opacity="1" fill-rule="nonzero"/></g></g></svg>