<svg xmlns="http://www.w3.org/2000/svg" xmlns:xlink="http://www.w3.org/1999/xlink" width="1920" zoomAndPan="magnify" viewBox="0 0 1440 809.999993" height="1080" preserveAspectRatio="xMidYMid meet" version="1.0"><defs><g/><clipPath id="7c0ec5c73b"><path d="M 33.90625 182 L 291.15625 182 L 291.15625 667 L 33.90625 667 Z M 33.90625 182 " clip-rule="nonzero"/></clipPath><clipPath id="85b0bddd43"><path d="M 290.996094 385 L 467 385 L 467 623.363281 L 290.996094 623.363281 Z M 290.996094 385 " clip-rule="nonzero"/></clipPath><clipPath id="c1baa0bc96"><path d="M 292 175 L 487.496094 175 L 487.496094 410 L 292 410 Z M 292 175 " clip-rule="nonzero"/></clipPath><clipPath id="d810d1a95b"><path d="M 290.996094 233 L 294 233 L 294 306 L 290.996094 306 Z M 290.996094 233 " clip-rule="nonzero"/></clipPath><clipPath id="d052a48b5c"><path d="M 290.996094 136 L 372 136 L 372 263 L 290.996094 263 Z M 290.996094 136 " clip-rule="nonzero"/></clipPath><clipPath id="1dc20af9a7"><path d="M 290.996094 311 L 299 311 L 299 585 L 290.996094 585 Z M 290.996094 311 " clip-rule="nonzero"/></clipPath><clipPath id="84b8003aec"><path d="M 279.015625 102.664062 L 389.265625 102.664062 L 389.265625 194.914062 L 279.015625 194.914062 Z M 279.015625 102.664062 " clip-rule="nonzero"/></clipPath><clipPath id="568721b563"><path d="M 284.957031 181 L 321.707031 181 L 321.707031 250.75 L 284.957031 250.75 Z M 284.957031 181 " clip-rule="nonzero"/></clipPath><clipPath id="143e3b94f1"><path d="M 283.121094 238.984375 L 298.871094 238.984375 L 298.871094 290.734375 L 283.121094 290.734375 Z M 283.121094 238.984375 " clip-rule="nonzero"/></clipPath><clipPath id="bb1f5133cd"><path d="M 284.957031 418.40625 L 300.707031 418.40625 L 300.707031 505.40625 L 284.957031 505.40625 Z M 284.957031 418.40625 " clip-rule="nonzero"/></clipPath><clipPath id="c2edfcb36d"><path d="M 284 401 L 300 401 L 300 421 L 284 421 Z M 284 401 " clip-rule="nonzero"/></clipPath><clipPath id="49b7dd6365"><path d="M 279.015625 404.710938 L 290.648438 397.859375 L 299.78125 413.371094 L 288.148438 420.222656 Z M 279.015625 404.710938 " clip-rule="nonzero"/></clipPath><clipPath id="191d626ac7"><path d="M 285 410 L 310 410 L 310 429 L 285 429 Z M 285 410 " clip-rule="nonzero"/></clipPath><clipPath id="0252115f4f"><path d="M 283.121094 412.515625 L 306.882812 409.132812 L 309.101562 424.726562 L 285.339844 428.105469 Z M 283.121094 412.515625 " clip-rule="nonzero"/></clipPath><clipPath id="d572b51e7a"><path d="M 286 376 L 306 376 L 306 391 L 286 391 Z M 286 376 " clip-rule="nonzero"/></clipPath><clipPath id="244297d8a1"><path d="M 287.089844 390.675781 L 286.746094 377.179688 L 304.742188 376.722656 L 305.082031 390.21875 Z M 287.089844 390.675781 " clip-rule="nonzero"/></clipPath><clipPath id="79c43f9ff3"><path d="M 284.957031 359.117188 L 299.207031 359.117188 L 299.207031 383.867188 L 284.957031 383.867188 Z M 284.957031 359.117188 " clip-rule="nonzero"/></clipPath><clipPath id="2f51e742a2"><path d="M 280 344 L 300 344 L 300 365 L 280 365 Z M 280 344 " clip-rule="nonzero"/></clipPath><clipPath id="e0e7fa5cb7"><path d="M 280.808594 349.292969 L 291.617188 344.074219 L 299.117188 359.609375 L 288.308594 364.828125 Z M 280.808594 349.292969 " clip-rule="nonzero"/></clipPath><clipPath id="9b11a8b464"><path d="M 280.496094 321.660156 L 291.746094 321.660156 L 291.746094 347.910156 L 280.496094 347.910156 Z M 280.496094 321.660156 " clip-rule="nonzero"/></clipPath><clipPath id="747a29ecf0"><path d="M 278 332 L 294 332 L 294 352 L 278 352 Z M 278 332 " clip-rule="nonzero"/></clipPath><clipPath id="f99b93f7ee"><path d="M 278.535156 334.710938 L 290.332031 332.503906 L 293.503906 349.457031 L 281.707031 351.664062 Z M 278.535156 334.710938 " clip-rule="nonzero"/></clipPath><clipPath id="8fcf044812"><path d="M 280 324 L 293 324 L 293 335 L 280 335 Z M 280 324 " clip-rule="nonzero"/></clipPath><clipPath id="03c7fe0fc8"><path d="M 281.367188 324.480469 L 292.566406 325.527344 L 291.730469 334.488281 L 280.53125 333.441406 Z M 281.367188 324.480469 " clip-rule="nonzero"/></clipPath></defs><g clip-path="url(#7c0ec5c73b)"><path fill="#000000" d="M 357.183594 182.066406 C 355.738281 182.03125 354.277344 182.054688 352.808594 182.132812 C 325.363281 184.3125 304.019531 208.289062 304.019531 236.183594 L 304.019531 556.984375 C 304.019531 564.394531 309.679688 570.058594 317.085938 570.058594 C 324.492188 570.058594 330.15625 564.394531 330.15625 556.984375 L 330.15625 235.316406 C 330.15625 222.238281 339.304688 210.464844 352.375 208.285156 C 367.1875 206.109375 380.261719 216.574219 382.003906 230.523438 C 372.855469 240.546875 366.753906 253.621094 366.753906 268.441406 C 366.753906 274.980469 370.675781 280.644531 377.210938 281.949219 C 385.488281 283.695312 392.894531 277.15625 392.894531 269.308594 C 392.894531 252.746094 405.960938 239.234375 422.515625 238.796875 C 439.070312 239.234375 452.144531 252.746094 452.144531 269.308594 C 452.144531 272.359375 451.703125 275.417969 450.832031 278.46875 C 449.523438 282.390625 450.398438 287.183594 453.011719 290.234375 C 455.625 293.722656 459.546875 295.460938 463.902344 295.460938 L 465.210938 295.460938 C 484.382812 295.460938 500.066406 311.152344 500.066406 330.332031 C 500.066406 335.5625 498.761719 340.359375 497.019531 344.71875 L 483.074219 344.71875 C 476.539062 344.71875 470.875 349.078125 469.570312 355.179688 C 467.828125 363.460938 474.363281 370.871094 482.203125 370.871094 L 499.632812 370.871094 C 520.109375 385.691406 527.949219 413.148438 514.878906 438.863281 C 513.136719 442.351562 510.523438 444.96875 508.34375 447.582031 C 503.117188 453.25 503.988281 462.402344 510.523438 466.761719 C 516.1875 470.683594 524.027344 469.378906 528.382812 464.582031 C 540.582031 450.199219 547.554688 431.890625 547.554688 413.148438 C 547.554688 390.480469 537.972656 369.125 520.980469 354.304688 C 524.03125 346.894531 525.769531 338.613281 525.769531 330.332031 C 525.769531 301.128906 505.296875 276.722656 477.847656 270.621094 L 477.847656 269.308594 C 477.847656 239.234375 454.316406 214.824219 424.691406 212.644531 L 421.210938 212.644531 C 415.546875 212.644531 409.882812 213.523438 404.652344 215.269531 C 397.300781 196.0625 378.84375 182.597656 357.183594 182.066406 Z M 225.597656 182.132812 C 203.378906 182.132812 184.648438 195.652344 176.808594 215.269531 C 171.578125 213.523438 165.914062 212.644531 160.25 212.644531 C 128.882812 212.644531 103.613281 237.925781 103.613281 269.308594 L 103.613281 269.75 C 76.167969 275.855469 55.257812 300.257812 55.257812 329.460938 C 55.257812 338.179688 56.996094 346.457031 60.480469 354.304688 C 43.925781 369.125 33.90625 390.480469 33.90625 413.148438 C 33.90625 433.632812 41.75 452.378906 55.257812 466.761719 C 55.257812 479.402344 55.691406 498.578125 55.691406 500.320312 C 55.691406 541.730469 88.367188 576.164062 129.320312 578.777344 C 142.390625 605.367188 169.398438 622.363281 199.457031 622.363281 C 242.589844 622.363281 277.878906 587.058594 277.878906 543.90625 L 277.878906 234.4375 C 277.878906 205.671875 254.351562 182.132812 225.597656 182.132812 Z M 225.597656 208.285156 C 239.976562 208.285156 251.738281 220.054688 251.738281 234.4375 L 251.738281 543.90625 C 251.738281 572.675781 228.210938 596.210938 199.457031 596.210938 C 177.238281 596.210938 157.632812 582.265625 150.226562 561.34375 C 148.484375 555.675781 142.820312 552.191406 137.15625 552.625 L 134.109375 552.625 C 105.355469 552.625 81.832031 529.089844 81.832031 500.320312 C 81.832031 499.449219 81.828125 492.917969 82.265625 485.507812 C 91.414062 489.429688 101.871094 491.601562 112.328125 491.601562 C 155.457031 491.601562 190.746094 456.296875 190.746094 413.148438 L 190.746094 391.351562 C 190.746094 383.941406 185.082031 378.277344 177.675781 378.277344 C 170.269531 378.277344 164.605469 383.941406 164.605469 391.351562 L 164.605469 413.148438 C 164.605469 441.914062 141.082031 465.449219 112.328125 465.449219 C 102.304688 465.449219 92.71875 462.40625 84.441406 457.175781 C 69.195312 447.585938 60.046875 431.015625 60.046875 413.148438 C 60.046875 396.148438 68.324219 380.894531 81.832031 370.871094 L 99.257812 370.871094 C 106.664062 370.871094 112.328125 365.203125 112.328125 357.792969 C 112.328125 350.382812 106.664062 344.71875 99.257812 344.71875 L 85.320312 344.71875 C 82.703125 339.921875 81.394531 334.695312 81.394531 329.027344 C 81.394531 312.03125 93.59375 298.078125 109.714844 295.027344 C 119.296875 313.332031 138.03125 325.972656 160.25 325.972656 C 167.65625 325.972656 173.320312 320.304688 173.320312 312.894531 C 173.320312 305.488281 167.65625 299.820312 160.25 299.820312 C 146.742188 299.820312 134.984375 290.671875 131.0625 278.46875 C 130.628906 277.160156 130.1875 275.851562 130.1875 274.542969 L 130.1875 273.667969 C 130.1875 272.359375 129.753906 271.050781 129.753906 269.308594 C 129.753906 252.308594 143.257812 238.796875 160.25 238.796875 C 166.785156 238.796875 173.316406 240.980469 178.542969 244.902344 C 182.464844 247.953125 187.699219 248.390625 192.054688 246.214844 C 196.414062 244.035156 199.457031 239.667969 199.457031 234.4375 L 199.457031 234.003906 C 199.457031 219.621094 211.222656 208.285156 225.597656 208.285156 Z M 378.082031 316.386719 C 370.675781 316.386719 365.011719 322.054688 365.011719 329.460938 L 365.011719 346.898438 C 365.011719 354.308594 370.675781 359.972656 378.082031 359.972656 C 385.488281 359.972656 391.148438 354.308594 391.148438 346.898438 L 391.148438 329.460938 C 391.148438 322.054688 385.488281 316.386719 378.082031 316.386719 Z M 378.082031 400.511719 C 370.675781 400.511719 365.011719 406.179688 365.011719 413.589844 C 365.011719 424.050781 367.191406 434.511719 371.109375 444.101562 C 373.289062 448.894531 378.078125 451.941406 383.304688 451.941406 C 385.046875 451.941406 386.796875 451.507812 388.105469 451.074219 C 394.636719 448.457031 397.6875 440.609375 395.074219 434.070312 C 392.457031 427.535156 391.148438 420.5625 391.148438 413.589844 C 391.148438 406.179688 385.488281 400.511719 378.082031 400.511719 Z M 452.144531 476.347656 C 444.300781 476.347656 437.328125 480.273438 433.40625 486.808594 L 341.050781 640.675781 C 337.128906 647.652344 336.695312 655.496094 340.613281 662.46875 C 344.535156 669.445312 351.507812 673.367188 359.785156 673.367188 L 544.066406 673.367188 C 551.90625 673.367188 559.316406 669.445312 563.238281 662.46875 C 567.15625 655.933594 567.15625 647.652344 563.238281 640.675781 L 470.878906 486.808594 C 466.957031 480.273438 459.984375 476.347656 452.144531 476.347656 Z M 452.144531 529.964844 C 459.550781 529.964844 465.210938 535.628906 465.210938 543.039062 L 465.210938 586.625 C 465.210938 594.035156 459.550781 599.703125 452.144531 599.703125 C 444.738281 599.703125 439.074219 594.035156 439.074219 586.625 L 439.074219 543.039062 C 439.074219 535.628906 444.738281 529.964844 452.144531 529.964844 Z M 452.144531 617.136719 C 459.550781 617.136719 465.210938 622.804688 465.210938 630.214844 C 465.210938 637.625 459.550781 643.289062 452.144531 643.289062 C 444.738281 643.289062 439.074219 637.625 439.074219 630.214844 C 439.074219 622.804688 444.738281 617.136719 452.144531 617.136719 Z M 452.144531 617.136719 " fill-opacity="1" fill-rule="nonzero"/></g><g clip-path="url(#85b0bddd43)"><path fill="#000000" d="M 368.296875 565.476562 C 360.3125 548.140625 354.332031 529.1875 348.308594 510.089844 C 335.007812 467.9375 321.476562 425.046875 286.5 404.054688 C 281.886719 401.300781 280.386719 395.324219 283.140625 390.71875 C 285.734375 386.386719 291.15625 384.800781 295.625 386.90625 L 296.976562 387.472656 C 329.347656 401.113281 352.777344 410.984375 392.5625 420.957031 C 396.273438 421.890625 402.011719 422.738281 408.410156 423.683594 C 431.203125 427.042969 461.027344 431.445312 465.4375 450.007812 C 468.089844 461.199219 463.226562 473.667969 457.785156 487.648438 C 453.785156 497.917969 449.410156 509.148438 448.324219 519.757812 C 447.191406 530.804688 450.433594 545.273438 453.53125 559.113281 C 455.734375 568.949219 457.875 578.496094 458.59375 586.828125 C 459.335938 595.410156 458.65625 603.179688 455.363281 609.617188 C 451.582031 617.019531 445.050781 621.953125 434.523438 623.4375 C 397.394531 628.664062 380.910156 592.835938 368.746094 566.414062 L 368.3125 565.472656 Z M 366.914062 504.300781 C 372.75 522.796875 378.539062 541.160156 385.988281 557.320312 L 385.972656 557.332031 L 385.988281 557.363281 L 386.4375 558.335938 C 396.011719 579.152344 409.003906 607.375 431.855469 604.160156 C 435.273438 603.679688 437.1875 602.480469 438.054688 600.777344 C 439.421875 598.109375 439.605469 593.78125 439.152344 588.5 C 438.5 580.945312 436.550781 572.257812 434.550781 563.304688 C 431.109375 547.953125 427.511719 531.886719 428.960938 517.78125 C 430.308594 504.589844 435.179688 492.078125 439.636719 480.640625 C 443.910156 469.667969 447.71875 459.878906 446.449219 454.503906 C 445.089844 448.789062 422.703125 445.488281 405.589844 442.960938 C 398.699219 441.945312 392.511719 441.03125 387.832031 439.859375 C 366.125 434.417969 349.140625 429 333.007812 423.019531 C 348.753906 446.742188 357.882812 475.679688 366.914062 504.300781 " fill-opacity="1" fill-rule="nonzero"/></g><g clip-path="url(#c1baa0bc96)"><path fill="#000000" d="M 454.160156 195.09375 C 431.117188 195.09375 395.207031 218.484375 365.007812 248.003906 C 335.632812 276.71875 312.328125 310.566406 312.328125 333.519531 C 312.328125 350.4375 326.152344 362.828125 345.417969 371.644531 C 376.074219 385.675781 419.546875 390.488281 448.363281 390.488281 C 460.296875 390.488281 463.984375 388.082031 463.984375 383.945312 C 463.984375 378.296875 461.460938 370.046875 458.523438 360.449219 C 453.894531 345.316406 448.363281 327.226562 448.363281 307.203125 C 448.363281 287.753906 454.257812 266.707031 459.703125 247.28125 C 464.007812 231.890625 468.011719 217.605469 468.011719 207.425781 C 468.011719 199.910156 464.621094 195.09375 454.160156 195.09375 Z M 351.359375 234.0625 C 384.734375 201.433594 425.878906 175.582031 454.160156 175.582031 C 479.363281 175.582031 487.53125 188.023438 487.53125 207.425781 C 487.53125 220.136719 483.164062 235.742188 478.457031 252.539062 C 473.382812 270.65625 467.882812 290.292969 467.882812 307.203125 C 467.882812 324.582031 472.917969 341.039062 477.128906 354.8125 C 480.558594 366.015625 483.503906 375.648438 483.503906 383.945312 C 483.503906 400.425781 475.210938 409.996094 448.363281 409.996094 C 417.644531 409.996094 370.96875 404.714844 337.339844 389.324219 C 311.40625 377.453125 292.808594 359.597656 292.808594 333.519531 C 292.808594 305.03125 318.710938 265.976562 351.359375 234.0625 " fill-opacity="1" fill-rule="nonzero"/></g><g clip-path="url(#d810d1a95b)"><path fill="#000000" d="M 264.734375 233.746094 C 273.464844 233.746094 280.53125 240.09375 285.511719 248.574219 C 290.65625 257.328125 293.925781 269.101562 293.925781 276.566406 C 293.925781 290.429688 286.171875 299.371094 276.25 303.332031 C 272.519531 304.820312 268.550781 305.570312 264.644531 305.570312 C 260.761719 305.570312 256.800781 304.820312 253.070312 303.332031 L 253.035156 303.332031 C 243.113281 299.371094 235.359375 290.429688 235.359375 276.566406 C 235.359375 269.074219 238.675781 257.308594 243.855469 248.574219 C 248.882812 240.097656 255.992188 233.746094 264.734375 233.746094 Z M 268.734375 258.402344 C 267.007812 255.460938 265.441406 253.257812 264.734375 253.257812 C 264.007812 253.257812 262.402344 255.492188 260.632812 258.480469 C 257.125 264.394531 254.882812 271.964844 254.882812 276.566406 C 254.882812 281.175781 257.25 284.0625 260.28125 285.273438 L 260.273438 285.285156 C 261.578125 285.800781 263.074219 286.058594 264.644531 286.058594 C 266.203125 286.058594 267.695312 285.796875 269.003906 285.273438 C 272.035156 284.0625 274.402344 281.175781 274.402344 276.566406 C 274.402344 271.917969 272.203125 264.304688 268.734375 258.402344 " fill-opacity="1" fill-rule="nonzero"/></g><g clip-path="url(#d052a48b5c)"><path fill="#000000" d="M 288.394531 255.539062 C 287.128906 260.761719 281.875 263.96875 276.652344 262.703125 C 271.429688 261.441406 268.222656 256.1875 269.484375 250.964844 C 274.15625 231.734375 285.960938 200.578125 305.429688 175.496094 C 319.445312 157.449219 337.449219 142.398438 359.769531 136.542969 C 364.972656 135.171875 370.292969 138.28125 371.664062 143.480469 C 373.03125 148.679688 369.925781 154 364.722656 155.367188 C 347.097656 159.992188 332.46875 172.398438 320.835938 187.386719 C 303.277344 210 292.617188 238.15625 288.394531 255.539062 " fill-opacity="1" fill-rule="nonzero"/></g><g clip-path="url(#1dc20af9a7)"><path fill="#000000" d="M 264.644531 311.785156 C 274.527344 311.785156 283.484375 311.890625 290.589844 326.074219 C 295.660156 336.210938 298.804688 355.167969 298.804688 391.832031 C 298.804688 439.378906 290.183594 508.171875 282.832031 547.253906 C 281.046875 556.730469 279.332031 564.53125 277.808594 569.953125 C 274.867188 580.449219 270.046875 585.875 263.320312 584.820312 L 263.285156 584.820312 C 262.035156 584.625 260.84375 584.199219 259.726562 583.539062 L 259.683594 583.539062 C 254.417969 580.4375 244.734375 540.730469 238.523438 494.089844 C 234.035156 460.335938 230.480469 422.269531 230.480469 391.832031 C 230.480469 355.167969 233.621094 336.210938 238.695312 326.074219 C 245.800781 311.890625 254.757812 311.785156 264.644531 311.785156 Z M 273.203125 334.761719 C 271.480469 331.316406 268.234375 331.296875 264.644531 331.296875 C 261.050781 331.296875 257.808594 331.316406 256.082031 334.761719 C 252.328125 342.261719 250 358.453125 250 391.832031 C 250 421.691406 253.453125 458.785156 257.820312 491.578125 C 260.21875 509.601562 262.570312 526.09375 264.546875 539.003906 C 271.523438 500.234375 279.285156 436.488281 279.285156 391.832031 C 279.285156 358.453125 276.957031 342.261719 273.203125 334.761719 " fill-opacity="1" fill-rule="nonzero"/></g><g clip-path="url(#84b8003aec)"><path fill="#ffffff" d="M 279.015625 102.664062 L 389.265625 102.664062 L 389.265625 194.910156 L 279.015625 194.910156 L 279.015625 102.664062 " fill-opacity="1" fill-rule="nonzero"/></g><g clip-path="url(#568721b563)"><path fill="#ffffff" d="M 284.957031 181.003906 L 321.707031 181.003906 L 321.707031 250.75 L 284.957031 250.75 L 284.957031 181.003906 " fill-opacity="1" fill-rule="nonzero"/></g><g clip-path="url(#143e3b94f1)"><path fill="#ffffff" d="M 283.121094 238.996094 L 298.871094 238.996094 L 298.871094 290.726562 L 283.121094 290.726562 L 283.121094 238.996094 " fill-opacity="1" fill-rule="nonzero"/></g><g clip-path="url(#bb1f5133cd)"><path fill="#ffffff" d="M 284.957031 418.417969 L 300.707031 418.417969 L 300.707031 505.394531 L 284.957031 505.394531 L 284.957031 418.417969 " fill-opacity="1" fill-rule="nonzero"/></g><g clip-path="url(#c2edfcb36d)"><g clip-path="url(#49b7dd6365)"><path fill="#ffffff" d="M 284.832031 401.289062 L 299.78125 413.367188 L 288.148438 420.21875 L 284.832031 401.289062 " fill-opacity="1" fill-rule="nonzero"/></g></g><g clip-path="url(#191d626ac7)"><g clip-path="url(#0252115f4f)"><path fill="#ffffff" d="M 295.003906 410.824219 L 309.101562 424.726562 L 285.339844 428.105469 L 295.003906 410.824219 " fill-opacity="1" fill-rule="nonzero"/></g></g><g clip-path="url(#d572b51e7a)"><g clip-path="url(#244297d8a1)"><path fill="#ffffff" d="M 286.921875 383.925781 L 304.738281 376.722656 L 305.078125 390.21875 L 286.921875 383.925781 " fill-opacity="1" fill-rule="nonzero"/></g></g><g clip-path="url(#79c43f9ff3)"><path fill="#ffffff" d="M 284.957031 359.128906 L 299.207031 359.128906 L 299.207031 383.859375 L 284.957031 383.859375 L 284.957031 359.128906 " fill-opacity="1" fill-rule="nonzero"/></g><g clip-path="url(#2f51e742a2)"><g clip-path="url(#e0e7fa5cb7)"><path fill="#ffffff" d="M 280.808594 349.292969 L 291.613281 344.074219 L 299.113281 359.609375 L 288.308594 364.828125 L 280.808594 349.292969 " fill-opacity="1" fill-rule="nonzero"/></g></g><g clip-path="url(#9b11a8b464)"><path fill="#ffffff" d="M 280.5 321.660156 L 291.746094 321.660156 L 291.746094 347.910156 L 280.5 347.910156 L 280.5 321.660156 " fill-opacity="1" fill-rule="nonzero"/></g><g clip-path="url(#747a29ecf0)"><g clip-path="url(#f99b93f7ee)"><path fill="#ffffff" d="M 278.535156 334.710938 L 290.328125 332.503906 L 293.503906 349.457031 L 281.707031 351.664062 L 278.535156 334.710938 " fill-opacity="1" fill-rule="nonzero"/></g></g><g clip-path="url(#8fcf044812)"><g clip-path="url(#03c7fe0fc8)"><path fill="#ffffff" d="M 281.371094 324.480469 L 292.5625 325.527344 L 291.726562 334.488281 L 280.535156 333.441406 L 281.371094 324.480469 " fill-opacity="1" fill-rule="nonzero"/></g></g><g fill="#000000" fill-opacity="1"><g transform="translate(538.471741, 457.499997)"><g><path d="M 98.46875 -71.90625 C 108.90625 -69.976562 116.972656 -65.851562 122.671875 -59.53125 C 128.378906 -53.21875 131.234375 -45.875 131.234375 -37.5 C 131.234375 -26.375 126.457031 -17.445312 116.90625 -10.71875 C 107.363281 -3.988281 94.351562 -0.414062 77.875 0 L 6.59375 0 L 5.359375 -6.59375 C 9.335938 -9.195312 15.175781 -12.015625 22.875 -15.046875 L 22.875 -123.203125 L 8.234375 -125.046875 L 8.453125 -135.5625 C 28.503906 -136.65625 49.925781 -137.203125 72.71875 -137.203125 C 88.375 -137.203125 100.941406 -133.972656 110.421875 -127.515625 C 119.898438 -121.066406 124.640625 -112.691406 124.640625 -102.390625 C 124.640625 -95.523438 122.40625 -89.140625 117.9375 -83.234375 C 113.476562 -77.328125 106.988281 -73.550781 98.46875 -71.90625 Z M 54.1875 -118.046875 L 54.1875 -77.46875 L 63.65625 -77.46875 C 73.40625 -77.46875 80.71875 -79.5625 85.59375 -83.75 C 90.46875 -87.9375 92.90625 -93.050781 92.90625 -99.09375 C 92.90625 -104.039062 91.359375 -108.675781 88.265625 -113 C 85.179688 -117.320312 81.304688 -120.035156 76.640625 -121.140625 Z M 70.65625 -15.859375 L 74.171875 -15.65625 C 81.859375 -15.65625 87.757812 -17.851562 91.875 -22.25 C 96 -26.644531 98.0625 -31.863281 98.0625 -37.90625 C 98.0625 -44.90625 95.554688 -50.945312 90.546875 -56.03125 C 85.535156 -61.113281 79.25 -63.722656 71.6875 -63.859375 L 54.1875 -63.859375 L 54.1875 -17.515625 Z M 70.65625 -15.859375 "/></g></g></g><g fill="#000000" fill-opacity="1"><g transform="translate(676.086159, 457.499997)"><g><path d="M 84.046875 -49.03125 L 31.515625 -49.65625 C 32.066406 -39.488281 35.226562 -31.585938 41 -25.953125 C 46.769531 -20.328125 54.117188 -17.515625 63.046875 -17.515625 C 70.460938 -17.515625 79.25 -19.984375 89.40625 -24.921875 L 93.734375 -14.015625 L 61.390625 2.671875 L 54.796875 3.09375 C 39.691406 3.09375 27.265625 -1.675781 17.515625 -11.21875 C 7.765625 -20.769531 2.890625 -32.894531 2.890625 -47.59375 C 2.890625 -62.96875 7.832031 -75.910156 17.71875 -86.421875 C 27.601562 -96.929688 39.617188 -102.1875 53.765625 -102.1875 C 66.128906 -102.1875 76.257812 -98.375 84.15625 -90.75 C 92.050781 -83.125 96 -73.203125 96 -60.984375 Z M 46.5625 -86.53125 C 39.414062 -82.40625 34.8125 -74.847656 32.75 -63.859375 L 68.390625 -65.71875 C 67.429688 -71.625 64.925781 -76.566406 60.875 -80.546875 C 56.820312 -84.535156 52.050781 -86.53125 46.5625 -86.53125 Z M 46.5625 -86.53125 "/></g></g></g><g fill="#000000" fill-opacity="1"><g transform="translate(775.794841, 457.499997)"><g><path d="M 54.1875 -19.984375 C 58.03125 -19.984375 63.796875 -20.875 71.484375 -22.65625 L 73.75 -12.5625 L 42.03125 3.296875 C 36.125 3.566406 30.488281 1.578125 25.125 -2.671875 C 19.769531 -6.929688 17.023438 -11.738281 16.890625 -17.09375 L 16.890625 -76.640625 L 2.46875 -76.4375 L 1.640625 -87.140625 C 6.867188 -90.847656 12.429688 -94.144531 18.328125 -97.03125 L 28.640625 -123.8125 L 42.640625 -123.8125 L 46.140625 -97.03125 L 74.375 -97.03125 L 74.78125 -88.171875 L 64.6875 -76.21875 L 46.765625 -76.21875 L 46.765625 -29.453125 C 46.765625 -25.890625 47.3125 -23.421875 48.40625 -22.046875 C 49.507812 -20.671875 51.4375 -19.984375 54.1875 -19.984375 Z M 54.1875 -19.984375 "/></g></g></g><g fill="#000000" fill-opacity="1"><g transform="translate(854.4905, 457.499997)"><g><path d="M 54.1875 -19.984375 C 58.03125 -19.984375 63.796875 -20.875 71.484375 -22.65625 L 73.75 -12.5625 L 42.03125 3.296875 C 36.125 3.566406 30.488281 1.578125 25.125 -2.671875 C 19.769531 -6.929688 17.023438 -11.738281 16.890625 -17.09375 L 16.890625 -76.640625 L 2.46875 -76.4375 L 1.640625 -87.140625 C 6.867188 -90.847656 12.429688 -94.144531 18.328125 -97.03125 L 28.640625 -123.8125 L 42.640625 -123.8125 L 46.140625 -97.03125 L 74.375 -97.03125 L 74.78125 -88.171875 L 64.6875 -76.21875 L 46.765625 -76.21875 L 46.765625 -29.453125 C 46.765625 -25.890625 47.3125 -23.421875 48.40625 -22.046875 C 49.507812 -20.671875 51.4375 -19.984375 54.1875 -19.984375 Z M 54.1875 -19.984375 "/></g></g></g><g fill="#000000" fill-opacity="1"><g transform="translate(933.186137, 457.499997)"><g><path d="M 84.046875 -49.03125 L 31.515625 -49.65625 C 32.066406 -39.488281 35.226562 -31.585938 41 -25.953125 C 46.769531 -20.328125 54.117188 -17.515625 63.046875 -17.515625 C 70.460938 -17.515625 79.25 -19.984375 89.40625 -24.921875 L 93.734375 -14.015625 L 61.390625 2.671875 L 54.796875 3.09375 C 39.691406 3.09375 27.265625 -1.675781 17.515625 -11.21875 C 7.765625 -20.769531 2.890625 -32.894531 2.890625 -47.59375 C 2.890625 -62.96875 7.832031 -75.910156 17.71875 -86.421875 C 27.601562 -96.929688 39.617188 -102.1875 53.765625 -102.1875 C 66.128906 -102.1875 76.257812 -98.375 84.15625 -90.75 C 92.050781 -83.125 96 -73.203125 96 -60.984375 Z M 46.5625 -86.53125 C 39.414062 -82.40625 34.8125 -74.847656 32.75 -63.859375 L 68.390625 -65.71875 C 67.429688 -71.625 64.925781 -76.566406 60.875 -80.546875 C 56.820312 -84.535156 52.050781 -86.53125 46.5625 -86.53125 Z M 46.5625 -86.53125 "/></g></g></g><g fill="#000000" fill-opacity="1"><g transform="translate(1032.894842, 457.499997)"><g><path d="M 69.21875 -98.890625 C 72.519531 -100.117188 75.953125 -100.734375 79.515625 -100.734375 C 86.660156 -100.734375 92.429688 -98.675781 96.828125 -94.5625 C 96.140625 -79.457031 93.597656 -66.476562 89.203125 -55.625 L 73.546875 -55.625 L 69.421875 -78.703125 C 61.867188 -73.066406 54.9375 -66.40625 48.625 -58.71875 L 48.625 -17.09375 C 58.238281 -15.175781 65.65625 -12.84375 70.875 -10.09375 L 70.046875 0 L 4.125 0 L 3.5 -7 C 7.34375 -9.195312 12.425781 -11.394531 18.75 -13.59375 L 18.75 -82.8125 L 3.296875 -84.671875 L 1.859375 -94.5625 C 13.671875 -99.09375 25.894531 -101.492188 38.53125 -101.765625 L 48.625 -92.703125 L 48.625 -75.8125 Z M 69.21875 -98.890625 "/></g></g></g><g fill="#000000" fill-opacity="1"><g transform="translate(1130.131394, 457.499997)"><g><path d="M 46.96875 -76.21875 L 46.96875 -16.890625 C 54.519531 -14.972656 60.769531 -12.707031 65.71875 -10.09375 L 64.890625 0 L 3.703125 0 L 3.09375 -7 C 6.382812 -8.925781 10.984375 -10.988281 16.890625 -13.1875 L 16.890625 -76.640625 L 2.671875 -76.4375 L 1.859375 -87.140625 C 6.796875 -90.160156 11.804688 -92.703125 16.890625 -94.765625 L 16.890625 -112.6875 C 17.023438 -124.632812 20.90625 -134.625 28.53125 -142.65625 C 36.15625 -150.695312 45.394531 -154.71875 56.25 -154.71875 C 66.40625 -154.71875 75.8125 -151.351562 84.46875 -144.625 L 68.1875 -118.453125 C 59.257812 -127.109375 48.957031 -132.191406 37.28125 -133.703125 L 47.171875 -97.03125 L 69.84375 -97.03125 L 70.25 -88.375 L 59.953125 -76.21875 Z M 46.96875 -76.21875 "/></g></g></g><g fill="#000000" fill-opacity="1"><g transform="translate(1205.530926, 457.499997)"><g><path d="M 48.625 -16.28125 C 55.070312 -14.21875 60.082031 -12.15625 63.65625 -10.09375 L 62.828125 0 L 3.703125 0 L 3.09375 -7 C 7.207031 -9.332031 12.425781 -11.597656 18.75 -13.796875 L 18.75 -132.875 L 3.296875 -134.53125 L 1.859375 -144.421875 C 13.671875 -148.953125 25.894531 -151.351562 38.53125 -151.625 L 48.625 -142.5625 Z M 48.625 -16.28125 "/></g></g></g><g fill="#000000" fill-opacity="1"><g transform="translate(1274.338159, 457.499997)"><g><path d="M 113.109375 -88.796875 C 109.398438 -86.597656 105.550781 -84.8125 101.5625 -83.4375 C 93.320312 -54.1875 86.179688 -31.457031 80.140625 -15.25 C 74.648438 -2.0625 67.578125 9.472656 58.921875 19.359375 C 50.265625 29.253906 39.140625 38.046875 25.546875 45.734375 L 9.6875 18.75 C 27.8125 13.664062 41.75 7.070312 51.5 -1.03125 C 45.875 -2.40625 40.722656 -4.671875 36.046875 -7.828125 L 9.484375 -81.171875 L -4.53125 -87.140625 L -4.53125 -97.859375 L 50.265625 -97.859375 L 50.890625 -88.796875 L 40.171875 -83.4375 L 51.921875 -44.09375 L 54.390625 -26.15625 L 58.09375 -26.15625 C 64 -44.976562 68.394531 -63.9375 71.28125 -83.03125 L 60.5625 -87.140625 L 60.78125 -97.859375 L 112.484375 -97.859375 Z M 113.109375 -88.796875 "/></g></g></g></svg>