<svg xmlns="http://www.w3.org/2000/svg" xmlns:xlink="http://www.w3.org/1999/xlink" width="1920" zoomAndPan="magnify" viewBox="0 0 1440 809.999993" height="1080" preserveAspectRatio="xMidYMid meet" version="1.0"><defs><clipPath id="7d4d024c38"><path d="M 1588.757812 125.59375 L -64.464844 1003.792969 L -470.140625 240.105469 L 1183.082031 -638.09375 Z M 1588.757812 125.59375 " clip-rule="nonzero"/></clipPath><clipPath id="c3c64bb399"><path d="M 1588.757812 125.59375 L -64.464844 1003.792969 L -470.140625 240.105469 L 1183.082031 -638.09375 Z M 1588.757812 125.59375 " clip-rule="nonzero"/></clipPath><clipPath id="48408d69da"><path d="M 269 437 L 388 437 L 388 494.742188 L 269 494.742188 Z M 269 437 " clip-rule="nonzero"/></clipPath><clipPath id="7e510aa9c5"><path d="M 121.316406 102.492188 L 536.066406 102.492188 L 536.066406 447 L 121.316406 447 Z M 121.316406 102.492188 " clip-rule="nonzero"/></clipPath><clipPath id="f14df4ed30"><path d="M 226 485 L 431 485 L 431 494.742188 L 226 494.742188 Z M 226 485 " clip-rule="nonzero"/></clipPath><clipPath id="2b2db0f57a"><path d="M 1332.023438 516.296875 L 1419.773438 516.296875 L 1419.773438 584.546875 L 1332.023438 584.546875 Z M 1332.023438 516.296875 " clip-rule="nonzero"/></clipPath><clipPath id="31a9863b48"><path d="M 1373.390625 674.371094 L 1418.390625 674.371094 L 1418.390625 719.371094 L 1373.390625 719.371094 Z M 1373.390625 674.371094 " clip-rule="nonzero"/></clipPath><clipPath id="726cc1a3a0"><path d="M 1332.023438 661.1875 L 1440 661.1875 L 1440 788.6875 L 1332.023438 788.6875 Z M 1332.023438 661.1875 " clip-rule="nonzero"/></clipPath><clipPath id="e23c256b19"><path d="M 1219.621094 546.351562 L 1264.621094 546.351562 L 1264.621094 591.351562 L 1219.621094 591.351562 Z M 1219.621094 546.351562 " clip-rule="nonzero"/></clipPath><clipPath id="58d443de0b"><path d="M 1178.253906 486.457031 L 1305.753906 486.457031 L 1305.753906 613.957031 L 1178.253906 613.957031 Z M 1178.253906 486.457031 " clip-rule="nonzero"/></clipPath><clipPath id="9ca0b4d0d7"><path d="M 1209 653.082031 L 1275.640625 653.082031 L 1275.640625 680 L 1209 680 Z M 1209 653.082031 " clip-rule="nonzero"/></clipPath><clipPath id="89859ea6ad"><path d="M 1049.351562 550.277344 L 1137.101562 550.277344 L 1137.101562 618.527344 L 1049.351562 618.527344 Z M 1049.351562 550.277344 " clip-rule="nonzero"/></clipPath><clipPath id="79a750ca05"><path d="M 1111.074219 673.082031 L 1140.324219 673.082031 L 1140.324219 702.332031 L 1111.074219 702.332031 Z M 1111.074219 673.082031 " clip-rule="nonzero"/></clipPath><clipPath id="985fc5a9f2"><path d="M 1069.707031 646.269531 L 1152.207031 646.269531 L 1152.207031 728.769531 L 1069.707031 728.769531 Z M 1069.707031 646.269531 " clip-rule="nonzero"/></clipPath><clipPath id="459e745748"><path d="M 1227.425781 754.695312 L 1256.675781 754.695312 L 1256.675781 783.945312 L 1227.425781 783.945312 Z M 1227.425781 754.695312 " clip-rule="nonzero"/></clipPath><clipPath id="d43f402a51"><path d="M 1200.4375 719.28125 L 1283.6875 719.28125 L 1283.6875 802.53125 L 1200.4375 802.53125 Z M 1200.4375 719.28125 " clip-rule="nonzero"/></clipPath><clipPath id="07d3edd719"><path d="M 1338.503906 191.941406 L 1383.503906 191.941406 L 1383.503906 236.941406 L 1338.503906 236.941406 Z M 1338.503906 191.941406 " clip-rule="nonzero"/></clipPath><clipPath id="109480bca4"><path d="M 1297.136719 132.042969 L 1424.636719 132.042969 L 1424.636719 259.542969 L 1297.136719 259.542969 Z M 1297.136719 132.042969 " clip-rule="nonzero"/></clipPath><clipPath id="d97b72953e"><path d="M 1328 299 L 1394.523438 299 L 1394.523438 325.667969 L 1328 325.667969 Z M 1328 299 " clip-rule="nonzero"/></clipPath><clipPath id="63307c30c2"><path d="M 1168.234375 195.863281 L 1255.984375 195.863281 L 1255.984375 264.113281 L 1168.234375 264.113281 Z M 1168.234375 195.863281 " clip-rule="nonzero"/></clipPath><clipPath id="c9d732805f"><path d="M 1260.988281 364.191406 L 1290.238281 364.191406 L 1290.238281 393.441406 L 1260.988281 393.441406 Z M 1260.988281 364.191406 " clip-rule="nonzero"/></clipPath><clipPath id="4f18dec321"><path d="M 1219.621094 337.378906 L 1302.121094 337.378906 L 1302.121094 419.878906 L 1219.621094 419.878906 Z M 1219.621094 337.378906 " clip-rule="nonzero"/></clipPath><clipPath id="633c9cc7b2"><path d="M 1372.363281 412.382812 L 1401.613281 412.382812 L 1401.613281 441.632812 L 1372.363281 441.632812 Z M 1372.363281 412.382812 " clip-rule="nonzero"/></clipPath><clipPath id="ad9d0589ac"><path d="M 1345.375 376.96875 L 1428.625 376.96875 L 1428.625 460.21875 L 1345.375 460.21875 Z M 1345.375 376.96875 " clip-rule="nonzero"/></clipPath><clipPath id="66ae2d9865"><path d="M 921.714844 502.570312 L 1009.464844 502.570312 L 1009.464844 570.820312 L 921.714844 570.820312 Z M 921.714844 502.570312 " clip-rule="nonzero"/></clipPath><clipPath id="497b34b7d5"><path d="M 963.078125 660.648438 L 1008.078125 660.648438 L 1008.078125 705.648438 L 963.078125 705.648438 Z M 963.078125 660.648438 " clip-rule="nonzero"/></clipPath><clipPath id="ffd0d4ffdd"><path d="M 921.714844 647.460938 L 1049.214844 647.460938 L 1049.214844 774.960938 L 921.714844 774.960938 Z M 921.714844 647.460938 " clip-rule="nonzero"/></clipPath><clipPath id="d3f8edeccb"><path d="M 801.691406 501.066406 L 846.691406 501.066406 L 846.691406 546.066406 L 801.691406 546.066406 Z M 801.691406 501.066406 " clip-rule="nonzero"/></clipPath><clipPath id="06bbcd087e"><path d="M 760.328125 441.167969 L 887.828125 441.167969 L 887.828125 568.667969 L 760.328125 568.667969 Z M 760.328125 441.167969 " clip-rule="nonzero"/></clipPath><clipPath id="da383a29d7"><path d="M 799 639.355469 L 865 639.355469 L 865 666.355469 L 799 666.355469 Z M 799 639.355469 " clip-rule="nonzero"/></clipPath><clipPath id="17a61d23e5"><path d="M 642.332031 502.570312 L 730.082031 502.570312 L 730.082031 570.820312 L 642.332031 570.820312 Z M 642.332031 502.570312 " clip-rule="nonzero"/></clipPath><clipPath id="0c0889eb8d"><path d="M 700.761719 659.355469 L 730.011719 659.355469 L 730.011719 688.605469 L 700.761719 688.605469 Z M 700.761719 659.355469 " clip-rule="nonzero"/></clipPath><clipPath id="e6c47eeb52"><path d="M 659.398438 632.542969 L 741.898438 632.542969 L 741.898438 715.042969 L 659.398438 715.042969 Z M 659.398438 632.542969 " clip-rule="nonzero"/></clipPath><clipPath id="397ccccf56"><path d="M 817.117188 740.96875 L 846.367188 740.96875 L 846.367188 770.21875 L 817.117188 770.21875 Z M 817.117188 740.96875 " clip-rule="nonzero"/></clipPath><clipPath id="0061ea54f8"><path d="M 790.128906 705.554688 L 873.378906 705.554688 L 873.378906 788.804688 L 790.128906 788.804688 Z M 790.128906 705.554688 " clip-rule="nonzero"/></clipPath><clipPath id="94ad01f15b"><path d="M 1085.425781 354.515625 L 1130.425781 354.515625 L 1130.425781 399.515625 L 1085.425781 399.515625 Z M 1085.425781 354.515625 " clip-rule="nonzero"/></clipPath><clipPath id="041f540cdc"><path d="M 1044.058594 341.328125 L 1171.558594 341.328125 L 1171.558594 468.828125 L 1044.058594 468.828125 Z M 1044.058594 341.328125 " clip-rule="nonzero"/></clipPath><clipPath id="5c21b2968d"><path d="M 1294.734375 25.832031 L 1382.484375 25.832031 L 1382.484375 94.082031 L 1294.734375 94.082031 Z M 1294.734375 25.832031 " clip-rule="nonzero"/></clipPath><clipPath id="5350f9d04b"><path d="M 667.421875 755 L 734 755 L 734 781.695312 L 667.421875 781.695312 Z M 667.421875 755 " clip-rule="nonzero"/></clipPath><clipPath id="a4c816828c"><path d="M 919 406.503906 L 985.53125 406.503906 L 985.53125 433.503906 L 919 433.503906 Z M 919 406.503906 " clip-rule="nonzero"/></clipPath><clipPath id="0374affa54"><path d="M 551 653.082031 L 617 653.082031 L 617 680 L 551 680 Z M 551 653.082031 " clip-rule="nonzero"/></clipPath><clipPath id="41fc65eae4"><path d="M 569.160156 754.695312 L 598.410156 754.695312 L 598.410156 783.945312 L 569.160156 783.945312 Z M 569.160156 754.695312 " clip-rule="nonzero"/></clipPath><clipPath id="339a2d11fe"><path d="M 542.171875 719.28125 L 625.421875 719.28125 L 625.421875 802.53125 L 542.171875 802.53125 Z M 542.171875 719.28125 " clip-rule="nonzero"/></clipPath><clipPath id="536d6a4971"><path d="M 419.464844 768.421875 L 486 768.421875 L 486 795.421875 L 419.464844 795.421875 Z M 419.464844 768.421875 " clip-rule="nonzero"/></clipPath><clipPath id="037811638b"><path d="M 150.339844 750.011719 L 238.089844 750.011719 L 238.089844 810 L 150.339844 810 Z M 150.339844 750.011719 " clip-rule="nonzero"/></clipPath><clipPath id="6448fd9a46"><path d="M 306.183594 754.15625 L 351.183594 754.15625 L 351.183594 799.15625 L 306.183594 799.15625 Z M 306.183594 754.15625 " clip-rule="nonzero"/></clipPath><clipPath id="724e895f8f"><path d="M 264.816406 740.96875 L 392.316406 740.96875 L 392.316406 810 L 264.816406 810 Z M 264.816406 740.96875 " clip-rule="nonzero"/></clipPath></defs><rect x="-144" width="1728" fill="#ffffff" y="-80.999999" height="971.999992" fill-opacity="1"/><rect x="-144" width="1728" fill="#ffffff" y="-80.999999" height="971.999992" fill-opacity="1"/><rect x="-144" width="1728" fill="#d4d4d1" y="-80.999999" height="971.999992" fill-opacity="1"/><g clip-path="url(#7d4d024c38)"><g clip-path="url(#c3c64bb399)"><path fill="#23497d" d="M -55.125 989.519531 C -67.386719 921.515625 -42.878906 852.609375 8.410156 806.734375 C 63.972656 756.847656 139.351562 736.597656 212.261719 728.136719 C 251.941406 723.945312 291.914062 722.503906 332.101562 720.367188 C 371.136719 718.257812 410.660156 717.058594 449.3125 708.75 C 484.761719 700.980469 518.890625 686.34375 544.933594 660.867188 C 565.585938 640.582031 580.136719 615.386719 592.605469 589.554688 C 617.511719 536.738281 634.171875 476.074219 678.472656 435.660156 C 723.890625 394.070312 788.035156 384.445312 846.734375 377.714844 C 906.582031 370.957031 969.71875 367.105469 1024.429688 338.625 C 1083.679688 307.734375 1112.132812 249.542969 1137.589844 191.191406 C 1150.851562 160.28125 1164.113281 129.367188 1183.417969 101.066406 C 1202.507812 73.460938 1225.585938 48.976562 1251.742188 28.097656 C 1304.054688 -13.664062 1369.164062 -40.101562 1436.175781 -45.425781 C 1452.472656 -46.515625 1468.800781 -46.457031 1484.914062 -45.703125 C 1488.601562 -45.332031 1490.632812 -46.992188 1492.175781 -49.558594 C 1492.816406 -51.644531 1493.210938 -54.183594 1491.523438 -57.363281 C 1458.964844 -118.65625 1233.457031 -543.179688 1200.652344 -604.929688 C 1196.070312 -613.558594 1191.488281 -622.183594 1186.90625 -630.808594 C 1184.976562 -634.441406 1180.113281 -635.933594 1176.480469 -634.003906 C 1161.953125 -626.289062 1146.976562 -618.332031 1132.449219 -610.617188 C 1092.960938 -589.636719 1053.015625 -568.417969 1013.523438 -547.441406 C 954.515625 -516.097656 895.960938 -484.992188 836.953125 -453.644531 C 765.234375 -415.546875 693.515625 -377.453125 621.34375 -339.113281 C 542.816406 -297.398438 464.746094 -255.925781 386.21875 -214.214844 C 306.78125 -172.015625 226.894531 -129.578125 147.457031 -87.382812 C 73.925781 -48.320312 -0.0625 -9.019531 -73.597656 30.042969 C -136.238281 63.316406 -198.878906 96.589844 -261.0625 129.625 C -306 153.496094 -350.9375 177.367188 -395.875 201.238281 C -417.210938 212.570312 -438.785156 223.449219 -459.421875 234.996094 C -460.332031 235.476562 -461.238281 235.957031 -462.148438 236.441406 C -465.777344 238.371094 -467.265625 243.234375 -465.335938 246.867188 C -442.425781 290 -226.324219 696.820312 -203.410156 739.953125 C -166.992188 808.511719 -130.332031 877.523438 -93.910156 946.085938 C -85.46875 961.976562 -77.027344 977.867188 -68.585938 993.757812 C -64.910156 1002.867188 -53.535156 997.988281 -55.125 989.519531 Z M -55.125 989.519531 " fill-opacity="1" fill-rule="nonzero"/></g></g><g clip-path="url(#48408d69da)"><path fill="#4a5254" d="M 382.632812 494.730469 L 274.808594 494.730469 C 272.125 494.730469 269.949219 492.554688 269.949219 489.875 C 269.949219 476.097656 275.1875 450.289062 286.4375 438.648438 C 287.351562 437.703125 288.613281 437.164062 289.933594 437.164062 L 367.449219 437.164062 C 368.765625 437.164062 370.03125 437.703125 370.945312 438.648438 C 382.019531 450.113281 387.496094 476.019531 387.496094 489.875 C 387.496094 492.554688 385.324219 494.730469 382.636719 494.730469 Z M 382.632812 494.730469 " fill-opacity="1" fill-rule="evenodd"/></g><g clip-path="url(#7e510aa9c5)"><path fill="#6c7374" d="M 500.125 446.882812 L 157.242188 446.882812 C 137.457031 446.882812 121.359375 430.792969 121.359375 411.019531 L 121.359375 138.355469 C 121.359375 118.582031 137.457031 102.492188 157.242188 102.492188 L 500.125 102.492188 C 519.910156 102.492188 536.011719 118.582031 536.011719 138.355469 L 536.011719 411.019531 C 536.011719 430.792969 519.914062 446.882812 500.125 446.882812 Z M 500.125 446.882812 " fill-opacity="1" fill-rule="evenodd"/></g><path fill="#89cff0" d="M 523.863281 382.777344 L 523.863281 138.355469 C 523.863281 125.28125 513.207031 114.632812 500.125 114.632812 L 157.242188 114.632812 C 144.164062 114.632812 133.507812 125.28125 133.507812 138.355469 L 133.507812 382.777344 Z M 523.863281 382.777344 " fill-opacity="1" fill-rule="evenodd"/><g clip-path="url(#f14df4ed30)"><path fill="#6c7374" d="M 425.996094 494.730469 L 231.375 494.730469 C 224.976562 494.730469 224.976562 485.019531 231.375 485.019531 L 425.996094 485.019531 C 432.390625 485.019531 432.390625 494.730469 425.996094 494.730469 Z M 425.996094 494.730469 " fill-opacity="1" fill-rule="evenodd"/></g><path fill="#7ebddb" d="M 157.242188 114.632812 C 144.164062 114.632812 133.507812 125.28125 133.507812 138.355469 L 133.507812 382.78125 L 520.121094 125.59375 C 515.898438 119.007812 508.507812 114.632812 500.125 114.632812 Z M 157.242188 114.632812 " fill-opacity="1" fill-rule="evenodd"/><path fill="#f7ceb2" d="M 263.328125 312.003906 C 255.386719 312.003906 248.523438 308.046875 242.882812 300.550781 C 237.683594 307.464844 231.507812 311.28125 224.503906 311.910156 C 211.460938 313.085938 199.9375 302.777344 197.140625 300.0625 C 187.761719 300.125 181.054688 297.574219 177.089844 292.402344 C 171.792969 285.496094 173.25 276.21875 173.972656 273.023438 C 166.722656 264.867188 169.429688 255.890625 170.789062 252.660156 C 160.289062 238.898438 164.972656 229.871094 169.695312 225.160156 C 164.75 216.335938 166.054688 203.722656 175.15625 198.359375 C 173.863281 187.46875 176.105469 177.574219 185.917969 175.148438 C 186.390625 166.09375 192.136719 156.546875 202.257812 156.546875 C 217.871094 139.359375 233.128906 139.5 242.882812 156.121094 C 252.636719 139.488281 267.910156 139.359375 283.53125 156.574219 C 293.054688 156.828125 299.40625 163.667969 299.40625 175.050781 C 309.515625 177.28125 311.921875 187.246094 310.605469 198.347656 C 320.058594 203.78125 320.824219 216.027344 315.96875 225.050781 C 320.714844 229.800781 325.464844 238.902344 314.972656 252.65625 C 316.328125 255.886719 319.039062 264.859375 311.789062 273.019531 C 312.507812 276.214844 313.96875 285.488281 308.671875 292.398438 C 302 301.097656 288.957031 299.925781 288.621094 300.0625 C 285.972656 302.632812 275.496094 311.996094 263.328125 312 Z M 263.328125 312.003906 " fill-opacity="1" fill-rule="evenodd"/><path fill="#f8b9a0" d="M 173.460938 276 C 173.613281 274.765625 173.8125 273.742188 173.972656 273.023438 C 173.597656 272.605469 173.253906 272.183594 172.933594 271.757812 C 176.523438 269.359375 179.273438 263.023438 175.808594 257.03125 C 174.507812 254.789062 177.925781 252.804688 179.230469 255.058594 C 180.953125 258.042969 181.515625 260.820312 181.425781 263.28125 C 188.128906 260.035156 196.273438 265.027344 193.429688 267.847656 C 192.660156 268.613281 191.417969 268.613281 190.648438 267.851562 C 190.15625 267.375 185.75 263.425781 179.878906 269.246094 C 178.851562 271.332031 177.574219 272.84375 176.851562 273.601562 C 175.957031 274.542969 174.800781 275.347656 173.464844 276 Z M 168.003906 227.074219 C 168.550781 226.371094 169.125 225.734375 169.699219 225.160156 C 169.226562 224.320312 168.8125 223.445312 168.453125 222.539062 C 172.449219 226.082031 180.058594 225.925781 184.285156 220.269531 C 185.832031 218.199219 189 220.558594 187.445312 222.632812 C 185.378906 225.390625 183.046875 227.003906 180.746094 227.890625 C 186.371094 232.773438 184.988281 242.214844 181.273438 240.714844 C 180.265625 240.308594 179.777344 239.167969 180.175781 238.160156 C 180.425781 237.523438 182.316406 231.921875 174.652344 228.8125 C 172.328125 228.695312 170.433594 228.113281 169.453125 227.75 C 168.964844 227.570312 168.480469 227.339844 168.003906 227.070312 Z M 184.023438 175.753906 C 184.632812 175.515625 185.265625 175.3125 185.925781 175.148438 C 185.960938 174.414062 186.039062 173.660156 186.152344 172.90625 L 187.40625 172.4375 C 188 178.636719 194.386719 183.402344 201.402344 181.519531 C 203.90625 180.847656 204.9375 184.660156 202.421875 185.332031 C 199.09375 186.222656 196.261719 186.046875 193.90625 185.324219 C 195.308594 192.632812 188.378906 199.207031 186.390625 195.730469 C 185.847656 194.789062 186.171875 193.589844 187.105469 193.042969 C 187.695312 192.695312 192.648438 189.464844 188.546875 182.285156 C 186.792969 180.753906 185.664062 179.128906 185.117188 178.238281 C 184.667969 177.496094 184.304688 176.660156 184.027344 175.753906 Z M 184.023438 175.753906 " fill-opacity="1" fill-rule="evenodd"/><path fill="#f8b9a0" d="M 244.855469 302.972656 C 244.183594 302.214844 243.523438 301.40625 242.882812 300.550781 C 242.238281 301.40625 241.578125 302.214844 240.90625 302.972656 L 240.90625 153.117188 C 241.6875 154.179688 242.34375 155.207031 242.882812 156.125 C 243.417969 155.210938 244.074219 154.183594 244.851562 153.125 L 244.851562 302.976562 Z M 244.855469 302.972656 " fill-opacity="1" fill-rule="evenodd"/><path fill="#f8b9a0" d="M 225.855469 187.917969 C 212.84375 187.917969 207.507812 174.929688 207.453125 174.785156 C 206.492188 172.378906 210.148438 170.910156 211.121094 173.320312 C 211.339844 173.859375 216.460938 186.148438 229.246094 183.625 C 231.804688 183.128906 232.554688 187 230.011719 187.496094 C 228.546875 187.785156 227.160156 187.917969 225.859375 187.917969 Z M 225.855469 187.917969 " fill-opacity="1" fill-rule="evenodd"/><path fill="#f8b9a0" d="M 258.078125 187.917969 C 256.183594 187.917969 251.820312 187.964844 252.367188 185.183594 C 252.578125 184.113281 253.625 183.421875 254.683594 183.625 C 267.480469 186.140625 272.597656 173.84375 272.8125 173.320312 C 273.785156 170.914062 277.441406 172.382812 276.480469 174.785156 C 276.421875 174.925781 271.085938 187.917969 258.078125 187.917969 Z M 258.078125 187.917969 " fill-opacity="1" fill-rule="evenodd"/><path fill="#f8b9a0" d="M 255.957031 222.847656 C 254.59375 222.847656 253.609375 221.445312 254.125 220.148438 C 254.175781 220.015625 257.804688 212.214844 263.335938 209.515625 C 266.722656 207.511719 271.128906 206.339844 276.683594 207.433594 C 279.234375 207.933594 278.46875 211.800781 275.921875 211.304688 C 272.746094 210.675781 270.046875 210.964844 267.773438 211.757812 C 277.828125 220.976562 272.179688 234.5 272.113281 234.644531 C 271.085938 237.03125 267.464844 235.480469 268.488281 233.085938 C 268.703125 232.582031 273.449219 221.066406 264.003906 213.738281 C 257.667969 218.332031 258.695312 222.847656 255.960938 222.847656 Z M 255.957031 222.847656 " fill-opacity="1" fill-rule="evenodd"/><path fill="#f8b9a0" d="M 227.777344 274.640625 C 224.84375 274.640625 226.570312 270.035156 218.5 264.726562 C 215.792969 263.136719 212.269531 262.222656 207.816406 263.097656 C 205.265625 263.601562 204.507812 259.726562 207.054688 259.226562 C 211.78125 258.296875 215.675781 259.007812 218.816406 260.472656 C 221.015625 256.84375 225.742188 252.460938 232.996094 253.882812 C 235.542969 254.382812 234.792969 258.261719 232.234375 257.753906 C 226.582031 256.636719 223.476562 260.386719 222.203125 262.515625 C 227.320312 266.367188 229.574219 271.851562 229.613281 271.945312 C 230.132812 273.246094 229.144531 274.648438 227.777344 274.648438 Z M 227.777344 274.640625 " fill-opacity="1" fill-rule="evenodd"/><path fill="#f8b9a0" d="M 224.855469 222.851562 C 222.121094 222.851562 223.152344 218.332031 216.808594 213.742188 C 207.367188 221.070312 212.113281 232.585938 212.328125 233.085938 C 213.347656 235.472656 209.730469 237.03125 208.699219 234.644531 C 208.636719 234.5 202.988281 220.984375 213.039062 211.761719 C 206.921875 209.628906 203.222656 213.042969 202.578125 209.75 C 202.367188 208.683594 203.0625 207.644531 204.132812 207.433594 C 209.558594 206.367188 215.078125 207.613281 218.0625 209.875 C 224.046875 213.710938 226.648438 220.050781 226.6875 220.152344 C 227.207031 221.453125 226.21875 222.851562 224.855469 222.851562 Z M 224.855469 222.851562 " fill-opacity="1" fill-rule="evenodd"/><path fill="#f8b9a0" d="M 257.824219 274.636719 C 256.460938 274.636719 255.472656 273.238281 255.988281 271.9375 C 256.027344 271.84375 258.277344 266.367188 263.386719 262.519531 C 262.09375 260.398438 258.964844 256.65625 253.363281 257.753906 C 250.816406 258.253906 250.050781 254.382812 252.601562 253.882812 C 259.859375 252.457031 264.582031 256.84375 266.78125 260.46875 C 269.921875 259.003906 273.816406 258.292969 278.546875 259.222656 C 281.101562 259.726562 280.324219 263.597656 277.785156 263.09375 C 268.8125 261.308594 262.140625 267.242188 259.65625 273.398438 C 259.34375 274.171875 258.605469 274.636719 257.820312 274.636719 Z M 257.824219 274.636719 " fill-opacity="1" fill-rule="evenodd"/><path fill="#f8b9a0" d="M 312.292969 275.914062 C 312.136719 274.679688 311.953125 273.742188 311.789062 273.023438 C 312.164062 272.605469 312.484375 272.222656 312.804688 271.796875 C 308.273438 268.78125 306.546875 262.332031 309.667969 256.917969 C 310.960938 254.667969 307.542969 252.695312 306.242188 254.949219 C 304.527344 257.9375 303.96875 260.714844 304.0625 263.179688 C 297.355469 259.941406 289.21875 264.949219 292.066406 267.765625 C 292.835938 268.53125 294.078125 268.527344 294.847656 267.761719 C 295.335938 267.285156 299.738281 263.332031 305.621094 269.140625 C 306.648438 271.226562 307.933594 272.734375 308.652344 273.492188 C 309.554688 274.433594 310.953125 275.269531 312.292969 275.917969 Z M 317.582031 226.863281 C 317.035156 226.164062 316.546875 225.628906 315.96875 225.054688 C 316.441406 224.210938 316.8125 223.382812 317.167969 222.480469 C 313.898438 225.386719 305.855469 226.464844 301.128906 220.167969 C 299.578125 218.101562 296.414062 220.46875 297.972656 222.539062 C 300.039062 225.292969 302.375 226.902344 304.679688 227.78125 C 299.0625 232.671875 300.464844 242.117188 304.171875 240.609375 C 305.179688 240.199219 305.667969 239.058594 305.265625 238.050781 C 305.019531 237.414062 303.117188 231.8125 310.773438 228.695312 C 313.097656 228.570312 314.992188 227.988281 315.972656 227.621094 C 316.460938 227.441406 317.105469 227.128906 317.582031 226.855469 Z M 301.324219 175.605469 C 300.714844 175.367188 300.066406 175.214844 299.410156 175.054688 C 299.371094 174.316406 299.449219 173.621094 299.332031 172.867188 L 297.921875 172.34375 C 297.339844 178.546875 290.960938 183.320312 283.941406 181.453125 C 281.433594 180.785156 280.414062 184.597656 282.925781 185.265625 C 286.253906 186.152344 289.089844 185.972656 291.441406 185.246094 C 290.054688 192.558594 296.996094 199.117188 298.980469 195.636719 C 299.519531 194.695312 299.195312 193.5 298.257812 192.953125 C 297.667969 192.605469 292.707031 189.378906 296.800781 182.195312 C 298.550781 180.664062 299.675781 179.035156 300.222656 178.140625 C 300.671875 177.398438 301.046875 176.515625 301.320312 175.609375 Z M 301.324219 175.605469 " fill-opacity="1" fill-rule="evenodd"/><path fill="#ffffff" d="M 462.550781 178.046875 L 375.175781 178.046875 C 368.777344 178.046875 368.78125 168.335938 375.175781 168.335938 L 462.550781 168.335938 C 468.949219 168.335938 468.949219 178.046875 462.550781 178.046875 Z M 462.550781 178.046875 " fill-opacity="1" fill-rule="evenodd"/><path fill="#ffffff" d="M 462.550781 214.46875 L 375.175781 214.46875 C 368.777344 214.46875 368.78125 204.757812 375.175781 204.757812 L 462.550781 204.757812 C 468.949219 204.757812 468.949219 214.46875 462.550781 214.46875 Z M 462.550781 214.46875 " fill-opacity="1" fill-rule="evenodd"/><path fill="#ffffff" d="M 462.550781 250.894531 L 375.175781 250.894531 C 368.777344 250.894531 368.78125 241.183594 375.175781 241.183594 L 462.550781 241.183594 C 468.949219 241.183594 468.949219 250.894531 462.550781 250.894531 Z M 462.550781 250.894531 " fill-opacity="1" fill-rule="evenodd"/><path fill="#ffffff" d="M 462.550781 287.316406 L 375.175781 287.316406 C 368.777344 287.316406 368.78125 277.605469 375.175781 277.605469 L 462.550781 277.605469 C 468.949219 277.605469 468.949219 287.316406 462.550781 287.316406 Z M 462.550781 287.316406 " fill-opacity="1" fill-rule="evenodd"/><g clip-path="url(#2b2db0f57a)"><path fill="#b2b2a9" d="M 1351.519531 545.546875 L 1332.101562 565.046875 L 1351.519531 584.546875 L 1351.519531 569.921875 L 1385.632812 569.921875 L 1385.632812 560.171875 L 1351.519531 560.171875 Z M 1419.695312 535.796875 L 1400.28125 516.296875 L 1400.28125 530.921875 L 1366.167969 530.921875 L 1366.167969 540.671875 L 1400.28125 540.671875 L 1400.28125 555.296875 Z M 1419.695312 535.796875 " fill-opacity="1" fill-rule="nonzero"/></g><g clip-path="url(#31a9863b48)"><path fill="#b2b2a9" d="M 1373.390625 674.371094 L 1373.390625 719.371094 L 1418.390625 719.371094 L 1418.390625 674.371094 Z M 1417.242188 718.222656 L 1374.539062 718.222656 L 1374.539062 675.523438 L 1417.238281 675.523438 L 1417.238281 718.222656 Z M 1417.242188 718.222656 " fill-opacity="1" fill-rule="nonzero"/></g><g clip-path="url(#726cc1a3a0)"><path fill="#b2b2a9" d="M 1332.023438 661.1875 L 1332.023438 788.6875 L 1459.523438 788.6875 L 1459.523438 661.1875 Z M 1456.269531 785.429688 L 1335.28125 785.429688 L 1335.28125 664.441406 L 1456.265625 664.441406 L 1456.265625 785.429688 Z M 1456.269531 785.429688 " fill-opacity="1" fill-rule="nonzero"/></g><g clip-path="url(#e23c256b19)"><path fill="#b2b2a9" d="M 1219.621094 546.351562 L 1219.621094 591.351562 L 1264.621094 591.351562 L 1264.621094 546.351562 Z M 1263.472656 590.203125 L 1220.769531 590.203125 L 1220.769531 547.503906 L 1263.472656 547.503906 Z M 1263.472656 590.203125 " fill-opacity="1" fill-rule="nonzero"/></g><g clip-path="url(#58d443de0b)"><path fill="#b2b2a9" d="M 1178.253906 486.457031 L 1178.253906 613.957031 L 1305.753906 613.957031 L 1305.753906 486.457031 Z M 1302.5 610.699219 L 1181.511719 610.699219 L 1181.511719 489.710938 L 1302.496094 489.710938 L 1302.496094 610.699219 Z M 1302.5 610.699219 " fill-opacity="1" fill-rule="nonzero"/></g><g clip-path="url(#9ca0b4d0d7)"><path fill="#b2b2a9" d="M 1242.230469 672.554688 L 1254.980469 672.554688 C 1255.710938 672.554688 1256.292969 673.132812 1256.292969 673.855469 L 1256.292969 678.417969 C 1256.292969 679.503906 1257.53125 680.082031 1258.40625 679.503906 L 1274.585938 667.703125 C 1275.3125 667.195312 1275.3125 666.113281 1274.585938 665.605469 L 1258.40625 653.734375 C 1257.53125 653.082031 1256.292969 653.734375 1256.292969 654.820312 L 1256.292969 659.378906 C 1256.292969 660.101562 1255.710938 660.683594 1254.980469 660.683594 L 1229.546875 660.683594 C 1228.820312 660.683594 1228.238281 660.101562 1228.238281 659.378906 L 1228.238281 654.820312 C 1228.238281 653.734375 1226.996094 653.15625 1226.125 653.734375 L 1209.945312 665.53125 C 1209.214844 666.039062 1209.214844 667.125 1209.945312 667.632812 L 1226.125 679.429688 C 1226.996094 680.082031 1228.238281 679.429688 1228.238281 678.34375 L 1228.238281 673.785156 C 1228.238281 673.058594 1228.820312 672.480469 1229.546875 672.480469 L 1242.230469 672.480469 Z M 1242.230469 672.554688 " fill-opacity="1" fill-rule="nonzero"/></g><g clip-path="url(#89859ea6ad)"><path fill="#b2b2a9" d="M 1068.847656 579.527344 L 1049.429688 599.027344 L 1068.847656 618.527344 L 1068.847656 603.902344 L 1102.960938 603.902344 L 1102.960938 594.152344 L 1068.847656 594.152344 Z M 1137.027344 569.777344 L 1117.609375 550.277344 L 1117.609375 564.902344 L 1083.496094 564.902344 L 1083.496094 574.652344 L 1117.609375 574.652344 L 1117.609375 589.277344 Z M 1137.027344 569.777344 " fill-opacity="1" fill-rule="nonzero"/></g><g clip-path="url(#79a750ca05)"><path fill="#b2b2a9" d="M 1111.074219 673.082031 L 1111.074219 702.332031 L 1140.324219 702.332031 L 1140.324219 673.082031 Z M 1139.574219 701.582031 L 1111.820312 701.582031 L 1111.820312 673.828125 L 1139.574219 673.828125 Z M 1139.574219 701.582031 " fill-opacity="1" fill-rule="nonzero"/></g><g clip-path="url(#985fc5a9f2)"><path fill="#b2b2a9" d="M 1069.707031 646.269531 L 1069.707031 728.769531 L 1152.207031 728.769531 L 1152.207031 646.269531 Z M 1150.101562 726.660156 L 1071.8125 726.660156 L 1071.8125 648.375 L 1150.097656 648.375 L 1150.097656 726.660156 Z M 1150.101562 726.660156 " fill-opacity="1" fill-rule="nonzero"/></g><g clip-path="url(#459e745748)"><path fill="#b2b2a9" d="M 1227.425781 754.695312 L 1227.425781 783.945312 L 1256.675781 783.945312 L 1256.675781 754.695312 Z M 1255.929688 783.199219 L 1228.171875 783.199219 L 1228.171875 755.441406 L 1255.929688 755.441406 Z M 1255.929688 783.199219 " fill-opacity="1" fill-rule="nonzero"/></g><g clip-path="url(#d43f402a51)"><path fill="#b2b2a9" d="M 1200.4375 719.28125 L 1200.4375 802.53125 L 1283.6875 802.53125 L 1283.6875 719.28125 Z M 1281.5625 800.402344 L 1202.566406 800.402344 L 1202.566406 721.40625 L 1281.5625 721.40625 Z M 1281.5625 800.402344 " fill-opacity="1" fill-rule="nonzero"/></g><g clip-path="url(#07d3edd719)"><path fill="#b2b2a9" d="M 1338.503906 191.941406 L 1338.503906 236.941406 L 1383.503906 236.941406 L 1383.503906 191.941406 Z M 1382.355469 235.792969 L 1339.652344 235.792969 L 1339.652344 193.089844 L 1382.351562 193.089844 L 1382.351562 235.792969 Z M 1382.355469 235.792969 " fill-opacity="1" fill-rule="nonzero"/></g><g clip-path="url(#109480bca4)"><path fill="#b2b2a9" d="M 1297.136719 132.042969 L 1297.136719 259.542969 L 1424.636719 259.542969 L 1424.636719 132.042969 Z M 1421.382812 256.289062 L 1300.394531 256.289062 L 1300.394531 135.300781 L 1421.378906 135.300781 L 1421.378906 256.289062 Z M 1421.382812 256.289062 " fill-opacity="1" fill-rule="nonzero"/></g><g clip-path="url(#d97b72953e)"><path fill="#b2b2a9" d="M 1361.109375 318.140625 L 1373.863281 318.140625 C 1374.59375 318.140625 1375.175781 318.722656 1375.175781 319.445312 L 1375.175781 324.003906 C 1375.175781 325.089844 1376.414062 325.667969 1377.289062 325.089844 L 1393.46875 313.292969 C 1394.195312 312.785156 1394.195312 311.699219 1393.46875 311.191406 L 1377.289062 299.320312 C 1376.414062 298.667969 1375.175781 299.320312 1375.175781 300.40625 L 1375.175781 304.96875 C 1375.175781 305.691406 1374.59375 306.269531 1373.863281 306.269531 L 1348.429688 306.269531 C 1347.703125 306.269531 1347.117188 305.691406 1347.117188 304.96875 L 1347.117188 300.40625 C 1347.117188 299.320312 1345.878906 298.742188 1345.003906 299.320312 L 1328.828125 311.121094 C 1328.097656 311.628906 1328.097656 312.710938 1328.828125 313.21875 L 1345.003906 325.019531 C 1345.878906 325.667969 1347.117188 325.019531 1347.117188 323.933594 L 1347.117188 319.371094 C 1347.117188 318.648438 1347.703125 318.070312 1348.429688 318.070312 L 1361.109375 318.070312 Z M 1361.109375 318.140625 " fill-opacity="1" fill-rule="nonzero"/></g><g clip-path="url(#63307c30c2)"><path fill="#b2b2a9" d="M 1187.730469 225.113281 L 1168.3125 244.613281 L 1187.730469 264.113281 L 1187.730469 249.488281 L 1221.84375 249.488281 L 1221.84375 239.738281 L 1187.730469 239.738281 Z M 1255.90625 215.363281 L 1236.492188 195.863281 L 1236.492188 210.488281 L 1202.378906 210.488281 L 1202.378906 220.238281 L 1236.492188 220.238281 L 1236.492188 234.863281 Z M 1255.90625 215.363281 " fill-opacity="1" fill-rule="nonzero"/></g><g clip-path="url(#c9d732805f)"><path fill="#b2b2a9" d="M 1260.988281 364.191406 L 1260.988281 393.441406 L 1290.238281 393.441406 L 1290.238281 364.191406 Z M 1289.492188 392.695312 L 1261.734375 392.695312 L 1261.734375 364.9375 L 1289.488281 364.9375 L 1289.488281 392.695312 Z M 1289.492188 392.695312 " fill-opacity="1" fill-rule="nonzero"/></g><g clip-path="url(#4f18dec321)"><path fill="#b2b2a9" d="M 1219.621094 337.378906 L 1219.621094 419.878906 L 1302.121094 419.878906 L 1302.121094 337.378906 Z M 1300.015625 417.773438 L 1221.726562 417.773438 L 1221.726562 339.488281 L 1300.011719 339.488281 L 1300.011719 417.773438 Z M 1300.015625 417.773438 " fill-opacity="1" fill-rule="nonzero"/></g><g clip-path="url(#633c9cc7b2)"><path fill="#b2b2a9" d="M 1372.363281 412.382812 L 1372.363281 441.632812 L 1401.613281 441.632812 L 1401.613281 412.382812 Z M 1400.867188 440.886719 L 1373.109375 440.886719 L 1373.109375 413.128906 L 1400.867188 413.128906 Z M 1400.867188 440.886719 " fill-opacity="1" fill-rule="nonzero"/></g><g clip-path="url(#ad9d0589ac)"><path fill="#b2b2a9" d="M 1345.375 376.96875 L 1345.375 460.21875 L 1428.625 460.21875 L 1428.625 376.96875 Z M 1426.5 458.09375 L 1347.503906 458.09375 L 1347.503906 379.09375 L 1426.496094 379.09375 L 1426.496094 458.09375 Z M 1426.5 458.09375 " fill-opacity="1" fill-rule="nonzero"/></g><g clip-path="url(#66ae2d9865)"><path fill="#b2b2a9" d="M 941.207031 531.820312 L 921.792969 551.320312 L 941.207031 570.820312 L 941.207031 556.195312 L 975.320312 556.195312 L 975.320312 546.445312 L 941.207031 546.445312 Z M 1009.386719 522.070312 L 989.96875 502.570312 L 989.96875 517.195312 L 955.855469 517.195312 L 955.855469 526.945312 L 989.96875 526.945312 L 989.96875 541.570312 Z M 1009.386719 522.070312 " fill-opacity="1" fill-rule="nonzero"/></g><g clip-path="url(#497b34b7d5)"><path fill="#b2b2a9" d="M 963.078125 660.648438 L 963.078125 705.648438 L 1008.078125 705.648438 L 1008.078125 660.648438 Z M 1006.929688 704.496094 L 964.230469 704.496094 L 964.230469 661.796875 L 1006.929688 661.796875 Z M 1006.929688 704.496094 " fill-opacity="1" fill-rule="nonzero"/></g><g clip-path="url(#ffd0d4ffdd)"><path fill="#b2b2a9" d="M 921.714844 647.460938 L 921.714844 774.960938 L 1049.214844 774.960938 L 1049.214844 647.460938 Z M 1045.957031 771.703125 L 924.96875 771.703125 L 924.96875 650.71875 L 1045.957031 650.71875 Z M 1045.957031 771.703125 " fill-opacity="1" fill-rule="nonzero"/></g><g clip-path="url(#d3f8edeccb)"><path fill="#b2b2a9" d="M 801.691406 501.066406 L 801.691406 546.066406 L 846.691406 546.066406 L 846.691406 501.066406 Z M 845.542969 544.914062 L 802.84375 544.914062 L 802.84375 502.214844 L 845.542969 502.214844 Z M 845.542969 544.914062 " fill-opacity="1" fill-rule="nonzero"/></g><g clip-path="url(#06bbcd087e)"><path fill="#b2b2a9" d="M 760.328125 441.167969 L 760.328125 568.667969 L 887.828125 568.667969 L 887.828125 441.167969 Z M 884.570312 565.410156 L 763.582031 565.410156 L 763.582031 444.425781 L 884.570312 444.425781 Z M 884.570312 565.410156 " fill-opacity="1" fill-rule="nonzero"/></g><g clip-path="url(#da383a29d7)"><path fill="#b2b2a9" d="M 831.917969 658.828125 L 844.671875 658.828125 C 845.398438 658.828125 845.984375 659.40625 845.984375 660.128906 L 845.984375 664.691406 C 845.984375 665.777344 847.222656 666.355469 848.097656 665.777344 L 864.273438 653.976562 C 865.003906 653.472656 865.003906 652.386719 864.273438 651.878906 L 848.097656 640.007812 C 847.222656 639.355469 845.984375 640.007812 845.984375 641.09375 L 845.984375 645.652344 C 845.984375 646.378906 845.398438 646.957031 844.671875 646.957031 L 819.238281 646.957031 C 818.507812 646.957031 817.925781 646.378906 817.925781 645.652344 L 817.925781 641.09375 C 817.925781 640.007812 816.6875 639.429688 815.8125 640.007812 L 799.636719 651.804688 C 798.90625 652.3125 798.90625 653.398438 799.636719 653.90625 L 815.8125 665.703125 C 816.6875 666.355469 817.925781 665.703125 817.925781 664.617188 L 817.925781 660.058594 C 817.925781 659.335938 818.507812 658.753906 819.238281 658.753906 L 831.917969 658.753906 Z M 831.917969 658.828125 " fill-opacity="1" fill-rule="nonzero"/></g><g clip-path="url(#17a61d23e5)"><path fill="#b2b2a9" d="M 661.828125 531.820312 L 642.410156 551.320312 L 661.828125 570.820312 L 661.828125 556.195312 L 695.941406 556.195312 L 695.941406 546.445312 L 661.828125 546.445312 Z M 730.007812 522.070312 L 710.589844 502.570312 L 710.589844 517.195312 L 676.476562 517.195312 L 676.476562 526.945312 L 710.589844 526.945312 L 710.589844 541.570312 Z M 730.007812 522.070312 " fill-opacity="1" fill-rule="nonzero"/></g><g clip-path="url(#0c0889eb8d)"><path fill="#b2b2a9" d="M 700.761719 659.355469 L 700.761719 688.605469 L 730.011719 688.605469 L 730.011719 659.355469 Z M 729.265625 687.855469 L 701.511719 687.855469 L 701.511719 660.101562 L 729.265625 660.101562 Z M 729.265625 687.855469 " fill-opacity="1" fill-rule="nonzero"/></g><g clip-path="url(#e6c47eeb52)"><path fill="#b2b2a9" d="M 659.398438 632.542969 L 659.398438 715.042969 L 741.898438 715.042969 L 741.898438 632.542969 Z M 739.789062 712.933594 L 661.503906 712.933594 L 661.503906 634.648438 L 739.789062 634.648438 Z M 739.789062 712.933594 " fill-opacity="1" fill-rule="nonzero"/></g><g clip-path="url(#397ccccf56)"><path fill="#b2b2a9" d="M 817.117188 740.96875 L 817.117188 770.21875 L 846.367188 770.21875 L 846.367188 740.96875 Z M 845.617188 769.472656 L 817.863281 769.472656 L 817.863281 741.714844 L 845.617188 741.714844 Z M 845.617188 769.472656 " fill-opacity="1" fill-rule="nonzero"/></g><g clip-path="url(#0061ea54f8)"><path fill="#b2b2a9" d="M 790.128906 705.554688 L 790.128906 788.804688 L 873.378906 788.804688 L 873.378906 705.554688 Z M 871.253906 786.675781 L 792.253906 786.675781 L 792.253906 707.679688 L 871.25 707.679688 L 871.25 786.675781 Z M 871.253906 786.675781 " fill-opacity="1" fill-rule="nonzero"/></g><g clip-path="url(#94ad01f15b)"><path fill="#b2b2a9" d="M 1085.425781 354.515625 L 1085.425781 399.515625 L 1130.425781 399.515625 L 1130.425781 354.515625 Z M 1129.277344 398.367188 L 1086.574219 398.367188 L 1086.574219 355.664062 L 1129.277344 355.664062 Z M 1129.277344 398.367188 " fill-opacity="1" fill-rule="nonzero"/></g><g clip-path="url(#041f540cdc)"><path fill="#b2b2a9" d="M 1044.058594 341.328125 L 1044.058594 468.828125 L 1171.558594 468.828125 L 1171.558594 341.328125 Z M 1168.304688 465.570312 L 1047.316406 465.570312 L 1047.316406 344.585938 L 1168.300781 344.585938 L 1168.300781 465.570312 Z M 1168.304688 465.570312 " fill-opacity="1" fill-rule="nonzero"/></g><g clip-path="url(#5c21b2968d)"><path fill="#b2b2a9" d="M 1314.230469 55.082031 L 1294.8125 74.582031 L 1314.230469 94.082031 L 1314.230469 79.457031 L 1348.34375 79.457031 L 1348.34375 69.707031 L 1314.230469 69.707031 Z M 1382.40625 45.332031 L 1362.992188 25.832031 L 1362.992188 40.457031 L 1328.878906 40.457031 L 1328.878906 50.207031 L 1362.992188 50.207031 L 1362.992188 64.832031 Z M 1382.40625 45.332031 " fill-opacity="1" fill-rule="nonzero"/></g><g clip-path="url(#5350f9d04b)"><path fill="#b2b2a9" d="M 700.761719 774.167969 L 713.511719 774.167969 C 714.242188 774.167969 714.824219 774.746094 714.824219 775.472656 L 714.824219 780.03125 C 714.824219 781.117188 716.0625 781.695312 716.9375 781.117188 L 733.117188 769.320312 C 733.84375 768.8125 733.84375 767.726562 733.117188 767.21875 L 716.9375 755.347656 C 716.0625 754.695312 714.824219 755.347656 714.824219 756.433594 L 714.824219 760.992188 C 714.824219 761.71875 714.242188 762.296875 713.511719 762.296875 L 688.078125 762.296875 C 687.351562 762.296875 686.769531 761.71875 686.769531 760.992188 L 686.769531 756.433594 C 686.769531 755.347656 685.527344 754.769531 684.65625 755.347656 L 668.476562 767.148438 C 667.746094 767.652344 667.746094 768.738281 668.476562 769.246094 L 684.65625 781.046875 C 685.527344 781.695312 686.769531 781.046875 686.769531 779.960938 L 686.769531 775.398438 C 686.769531 774.675781 687.351562 774.097656 688.078125 774.097656 L 700.761719 774.097656 Z M 700.761719 774.167969 " fill-opacity="1" fill-rule="nonzero"/></g><g clip-path="url(#a4c816828c)"><path fill="#b2b2a9" d="M 952.121094 425.976562 L 964.875 425.976562 C 965.601562 425.976562 966.183594 426.554688 966.183594 427.28125 L 966.183594 431.839844 C 966.183594 432.925781 967.425781 433.503906 968.296875 432.925781 L 984.476562 421.128906 C 985.207031 420.621094 985.207031 419.535156 984.476562 419.027344 L 968.296875 407.15625 C 967.425781 406.503906 966.183594 407.15625 966.183594 408.242188 L 966.183594 412.804688 C 966.183594 413.527344 965.601562 414.105469 964.875 414.105469 L 939.441406 414.105469 C 938.710938 414.105469 938.128906 413.527344 938.128906 412.804688 L 938.128906 408.242188 C 938.128906 407.15625 936.890625 406.578125 936.015625 407.15625 L 919.835938 418.957031 C 919.109375 419.460938 919.109375 420.546875 919.835938 421.054688 L 936.015625 432.855469 C 936.890625 433.503906 938.128906 432.855469 938.128906 431.769531 L 938.128906 427.207031 C 938.128906 426.484375 938.710938 425.90625 939.441406 425.90625 L 952.121094 425.90625 Z M 952.121094 425.976562 " fill-opacity="1" fill-rule="nonzero"/></g><g clip-path="url(#0374affa54)"><path fill="#b2b2a9" d="M 583.960938 672.554688 L 596.714844 672.554688 C 597.445312 672.554688 598.027344 673.132812 598.027344 673.855469 L 598.027344 678.417969 C 598.027344 679.503906 599.265625 680.082031 600.140625 679.503906 L 616.320312 667.703125 C 617.046875 667.195312 617.046875 666.113281 616.320312 665.605469 L 600.140625 653.734375 C 599.265625 653.082031 598.027344 653.734375 598.027344 654.820312 L 598.027344 659.378906 C 598.027344 660.101562 597.445312 660.683594 596.714844 660.683594 L 571.28125 660.683594 C 570.554688 660.683594 569.972656 660.101562 569.972656 659.378906 L 569.972656 654.820312 C 569.972656 653.734375 568.730469 653.15625 567.855469 653.734375 L 551.679688 665.53125 C 550.949219 666.039062 550.949219 667.125 551.679688 667.632812 L 567.855469 679.429688 C 568.730469 680.082031 569.972656 679.429688 569.972656 678.34375 L 569.972656 673.785156 C 569.972656 673.058594 570.554688 672.480469 571.28125 672.480469 L 583.960938 672.480469 Z M 583.960938 672.554688 " fill-opacity="1" fill-rule="nonzero"/></g><g clip-path="url(#41fc65eae4)"><path fill="#b2b2a9" d="M 569.160156 754.695312 L 569.160156 783.945312 L 598.410156 783.945312 L 598.410156 754.695312 Z M 597.664062 783.199219 L 569.90625 783.199219 L 569.90625 755.441406 L 597.664062 755.441406 Z M 597.664062 783.199219 " fill-opacity="1" fill-rule="nonzero"/></g><g clip-path="url(#339a2d11fe)"><path fill="#b2b2a9" d="M 542.171875 719.28125 L 542.171875 802.53125 L 625.421875 802.53125 L 625.421875 719.28125 Z M 623.296875 800.402344 L 544.300781 800.402344 L 544.300781 721.40625 L 623.296875 721.40625 Z M 623.296875 800.402344 " fill-opacity="1" fill-rule="nonzero"/></g><g clip-path="url(#536d6a4971)"><path fill="#b2b2a9" d="M 452.804688 787.894531 L 465.558594 787.894531 C 466.285156 787.894531 466.867188 788.472656 466.867188 789.199219 L 466.867188 793.757812 C 466.867188 794.84375 468.109375 795.421875 468.980469 794.84375 L 485.160156 783.046875 C 485.890625 782.539062 485.890625 781.453125 485.160156 780.945312 L 468.980469 769.074219 C 468.109375 768.421875 466.867188 769.074219 466.867188 770.160156 L 466.867188 774.71875 C 466.867188 775.445312 466.285156 776.023438 465.558594 776.023438 L 440.125 776.023438 C 439.394531 776.023438 438.8125 775.445312 438.8125 774.71875 L 438.8125 770.160156 C 438.8125 769.074219 437.574219 768.496094 436.699219 769.074219 L 420.519531 780.875 C 419.792969 781.378906 419.792969 782.464844 420.519531 782.972656 L 436.699219 794.769531 C 437.574219 795.421875 438.8125 794.769531 438.8125 793.6875 L 438.8125 789.125 C 438.8125 788.402344 439.394531 787.824219 440.125 787.824219 L 452.804688 787.824219 Z M 452.804688 787.894531 " fill-opacity="1" fill-rule="nonzero"/></g><g clip-path="url(#037811638b)"><path fill="#b2b2a9" d="M 169.832031 779.261719 L 150.414062 798.761719 L 169.832031 818.261719 L 169.832031 803.636719 L 203.945312 803.636719 L 203.945312 793.886719 L 169.832031 793.886719 Z M 238.011719 769.511719 L 218.59375 750.011719 L 218.59375 764.636719 L 184.480469 764.636719 L 184.480469 774.386719 L 218.59375 774.386719 L 218.59375 789.011719 Z M 238.011719 769.511719 " fill-opacity="1" fill-rule="nonzero"/></g><g clip-path="url(#6448fd9a46)"><path fill="#b2b2a9" d="M 306.183594 754.15625 L 306.183594 799.15625 L 351.183594 799.15625 L 351.183594 754.15625 Z M 350.03125 798.003906 L 307.332031 798.003906 L 307.332031 755.304688 L 350.03125 755.304688 Z M 350.03125 798.003906 " fill-opacity="1" fill-rule="nonzero"/></g><g clip-path="url(#724e895f8f)"><path fill="#b2b2a9" d="M 264.816406 740.96875 L 264.816406 868.46875 L 392.316406 868.46875 L 392.316406 740.96875 Z M 389.058594 865.210938 L 268.074219 865.210938 L 268.074219 744.226562 L 389.058594 744.226562 Z M 389.058594 865.210938 " fill-opacity="1" fill-rule="nonzero"/></g></svg>