<svg xmlns="http://www.w3.org/2000/svg" xmlns:xlink="http://www.w3.org/1999/xlink" width="1920" zoomAndPan="magnify" viewBox="0 0 1440 809.999993" height="1080" preserveAspectRatio="xMidYMid meet" version="1.0"><defs><clipPath id="eaf1633392"><path d="M 500.414062 172 L 939.914062 172 L 939.914062 673.390625 L 500.414062 673.390625 Z M 500.414062 172 " clip-rule="nonzero"/></clipPath><clipPath id="f017afae1d"><path d="M 608 136.390625 L 842 136.390625 L 842 352 L 608 352 Z M 608 136.390625 " clip-rule="nonzero"/></clipPath><clipPath id="1a35609fe0"><path d="M 241.707031 181.023438 L 500.457031 181.023438 L 500.457031 439.773438 L 241.707031 439.773438 Z M 241.707031 181.023438 " clip-rule="nonzero"/></clipPath><clipPath id="00cadd1fe8"><path d="M 910.984375 362.421875 L 1159.984375 362.421875 L 1159.984375 611.421875 L 910.984375 611.421875 Z M 910.984375 362.421875 " clip-rule="nonzero"/></clipPath></defs><path fill="#bddbff" d="M 930.726562 628.640625 L 930.726562 655.492188 C 930.726562 660.421875 926.703125 664.441406 921.765625 664.441406 L 527.519531 664.441406 C 522.582031 664.441406 518.558594 660.421875 518.558594 655.492188 L 518.558594 628.640625 L 930.726562 628.640625 " fill-opacity="1" fill-rule="nonzero"/><path fill="#bddbff" d="M 921.765625 395.941406 L 921.765625 431.742188 C 921.765625 441.601562 913.683594 449.640625 903.847656 449.640625 L 545.4375 449.640625 C 535.605469 449.640625 527.519531 441.601562 527.519531 431.742188 L 527.519531 395.941406 L 921.765625 395.941406 " fill-opacity="1" fill-rule="nonzero"/><path fill="#bddbff" d="M 814.246094 503.34375 L 814.246094 539.140625 L 635.039062 539.140625 L 635.039062 503.34375 L 814.246094 503.34375 " fill-opacity="1" fill-rule="nonzero"/><path fill="#bddbff" d="M 814.246094 225.890625 L 814.246094 190.09375 L 778.402344 181.140625 L 778.402344 163.242188 L 760.484375 145.34375 L 742.5625 145.34375 L 724.644531 172.191406 L 724.644531 324.34375 L 742.5625 342.242188 L 760.484375 342.242188 L 778.402344 315.390625 L 796.324219 315.390625 L 805.285156 306.441406 L 805.285156 279.59375 L 832.164062 270.640625 L 832.164062 234.84375 L 814.246094 225.890625 " fill-opacity="1" fill-rule="nonzero"/><path fill="#bddbff" d="M 769.445312 449.640625 L 769.445312 503.34375 L 679.84375 503.34375 L 679.84375 449.640625 L 769.445312 449.640625 " fill-opacity="1" fill-rule="nonzero"/><path fill="#bddbff" d="M 706.722656 145.34375 L 688.800781 145.34375 L 670.882812 163.242188 L 670.882812 181.140625 L 635.039062 190.09375 L 635.039062 225.890625 L 617.121094 234.84375 L 617.121094 270.640625 L 644 279.59375 L 644 306.441406 L 652.960938 315.390625 L 670.882812 315.390625 L 688.800781 342.242188 L 706.722656 342.242188 L 724.644531 324.34375 L 724.644531 172.191406 L 706.722656 145.34375 " fill-opacity="1" fill-rule="nonzero"/><g clip-path="url(#eaf1633392)"><path fill="#23497d" d="M 527.519531 655.492188 L 527.519531 637.59375 L 921.765625 637.59375 L 921.765625 655.492188 Z M 576.03125 583.890625 L 873.257812 583.890625 L 909.097656 619.691406 L 540.1875 619.691406 Z M 536.480469 431.742188 L 536.480469 404.890625 L 912.808594 404.890625 L 912.808594 431.742188 C 912.808594 436.671875 908.78125 440.691406 903.847656 440.691406 L 545.4375 440.691406 C 540.503906 440.691406 536.480469 436.671875 536.480469 431.742188 Z M 760.484375 494.390625 L 688.800781 494.390625 L 688.800781 458.59375 L 760.484375 458.59375 Z M 805.285156 530.191406 L 644 530.191406 L 644 512.292969 L 805.285156 512.292969 Z M 937.0625 622.3125 L 883.300781 568.613281 C 881.621094 566.9375 879.347656 565.992188 876.964844 565.992188 L 608.160156 565.992188 L 608.160156 548.09375 C 608.160156 533.269531 596.121094 521.242188 581.28125 521.242188 L 527.519531 521.242188 C 522.582031 521.242188 518.558594 517.222656 518.558594 512.292969 C 518.558594 507.363281 522.582031 503.34375 527.519531 503.34375 L 581.28125 503.34375 C 596.121094 503.34375 608.160156 491.316406 608.160156 476.492188 L 608.160156 458.59375 L 670.882812 458.59375 L 670.882812 494.390625 L 635.039062 494.390625 C 630.105469 494.390625 626.082031 498.414062 626.082031 503.34375 L 626.082031 539.140625 C 626.082031 544.070312 630.105469 548.09375 635.039062 548.09375 L 814.246094 548.09375 C 819.179688 548.09375 823.207031 544.070312 823.207031 539.140625 L 823.207031 503.34375 C 823.207031 498.414062 819.179688 494.390625 814.246094 494.390625 L 778.402344 494.390625 L 778.402344 458.59375 L 903.847656 458.59375 C 918.6875 458.59375 930.726562 446.566406 930.726562 431.742188 L 930.726562 199.042969 C 930.726562 184.21875 918.6875 172.191406 903.847656 172.191406 L 841.125 172.191406 L 841.125 190.09375 L 903.847656 190.09375 C 908.78125 190.09375 912.808594 194.113281 912.808594 199.042969 L 912.808594 386.992188 L 536.480469 386.992188 L 536.480469 199.042969 C 536.480469 194.113281 540.503906 190.09375 545.4375 190.09375 L 608.160156 190.09375 L 608.160156 172.191406 L 545.4375 172.191406 C 530.597656 172.191406 518.558594 184.21875 518.558594 199.042969 L 518.558594 431.742188 C 518.558594 446.566406 530.597656 458.59375 545.4375 458.59375 L 590.238281 458.59375 L 590.238281 476.492188 C 590.238281 481.421875 586.214844 485.441406 581.28125 485.441406 L 527.519531 485.441406 C 512.679688 485.441406 500.636719 497.46875 500.636719 512.292969 C 500.636719 527.117188 512.679688 539.140625 527.519531 539.140625 L 581.28125 539.140625 C 586.214844 539.140625 590.238281 543.164062 590.238281 548.09375 L 590.238281 565.992188 L 572.320312 565.992188 C 569.941406 565.992188 567.664062 566.9375 565.984375 568.613281 L 512.222656 622.3125 C 510.542969 623.992188 509.597656 626.265625 509.597656 628.640625 L 509.597656 655.492188 C 509.597656 665.351562 517.648438 673.390625 527.519531 673.390625 L 921.765625 673.390625 C 931.636719 673.390625 939.6875 665.351562 939.6875 655.492188 L 939.6875 628.640625 C 939.6875 626.265625 938.742188 623.992188 937.0625 622.3125 " fill-opacity="1" fill-rule="nonzero"/></g><path fill="#23497d" d="M 599.199219 592.84375 L 581.28125 592.84375 L 581.28125 610.742188 L 599.199219 610.742188 L 599.199219 592.84375 " fill-opacity="1" fill-rule="nonzero"/><path fill="#23497d" d="M 635.039062 592.84375 L 617.121094 592.84375 L 617.121094 610.742188 L 635.039062 610.742188 L 635.039062 592.84375 " fill-opacity="1" fill-rule="nonzero"/><path fill="#23497d" d="M 832.164062 592.84375 L 814.246094 592.84375 L 814.246094 610.742188 L 832.164062 610.742188 L 832.164062 592.84375 " fill-opacity="1" fill-rule="nonzero"/><path fill="#23497d" d="M 796.324219 592.84375 L 652.960938 592.84375 L 652.960938 610.742188 L 796.324219 610.742188 L 796.324219 592.84375 " fill-opacity="1" fill-rule="nonzero"/><path fill="#23497d" d="M 868.007812 592.84375 L 850.085938 592.84375 L 850.085938 610.742188 L 868.007812 610.742188 L 868.007812 592.84375 " fill-opacity="1" fill-rule="nonzero"/><path fill="#23497d" d="M 859.046875 431.742188 L 876.964844 431.742188 L 876.964844 413.84375 L 859.046875 413.84375 L 859.046875 431.742188 " fill-opacity="1" fill-rule="nonzero"/><g clip-path="url(#f017afae1d)"><path fill="#23497d" d="M 626.082031 240.367188 L 637.140625 234.84375 L 652.960938 234.84375 L 652.960938 216.941406 L 644 216.941406 L 644 197.085938 L 668.152344 191.035156 L 679.84375 202.746094 L 679.84375 225.890625 L 697.761719 225.890625 L 697.761719 199.042969 C 697.761719 196.664062 696.816406 194.390625 695.136719 192.714844 L 679.84375 177.4375 L 679.84375 166.949219 L 692.511719 154.292969 L 701.925781 154.292969 L 715.683594 174.882812 L 715.683594 320.636719 L 703.011719 333.292969 L 693.597656 333.292969 L 678.335938 310.425781 C 676.691406 307.945312 673.890625 306.441406 670.882812 306.441406 L 656.671875 306.441406 L 652.960938 302.734375 L 652.960938 283.296875 L 668.257812 268.019531 C 669.9375 266.34375 670.882812 264.070312 670.882812 261.691406 L 670.882812 252.742188 L 652.960938 252.742188 L 652.960938 257.984375 L 641.585938 269.347656 L 626.082031 264.210938 Z M 747.359375 154.292969 L 756.773438 154.292969 L 769.445312 166.949219 L 769.445312 177.4375 L 754.148438 192.714844 C 752.46875 194.390625 751.523438 196.664062 751.523438 199.042969 L 751.523438 225.890625 L 769.445312 225.890625 L 769.445312 202.746094 L 781.132812 191.035156 L 805.285156 197.085938 L 805.285156 216.941406 L 796.324219 216.941406 L 796.324219 234.84375 L 812.144531 234.84375 L 823.207031 240.367188 L 823.207031 264.210938 L 807.699219 269.347656 L 796.324219 257.984375 L 796.324219 252.742188 L 778.402344 252.742188 L 778.402344 261.691406 C 778.402344 264.070312 779.347656 266.34375 781.03125 268.019531 L 796.324219 283.296875 L 796.324219 302.734375 L 792.613281 306.441406 L 778.402344 306.441406 C 775.394531 306.441406 772.59375 307.945312 770.949219 310.425781 L 755.6875 333.292969 L 746.273438 333.292969 L 733.601562 320.636719 L 733.601562 174.882812 Z M 608.160156 270.640625 C 608.160156 274.488281 610.644531 277.914062 614.285156 279.136719 L 635.039062 286.023438 L 635.039062 306.441406 C 635.039062 308.820312 635.984375 311.09375 637.667969 312.769531 L 646.625 321.71875 C 648.304688 323.398438 650.582031 324.34375 652.960938 324.34375 L 666.085938 324.34375 L 681.347656 347.207031 C 682.992188 349.6875 685.792969 351.191406 688.800781 351.191406 L 706.722656 351.191406 C 709.101562 351.191406 711.378906 350.25 713.058594 348.570312 L 724.644531 336.996094 L 736.226562 348.570312 C 737.910156 350.25 740.183594 351.191406 742.5625 351.191406 L 760.484375 351.191406 C 763.492188 351.191406 766.292969 349.6875 767.9375 347.207031 L 783.199219 324.34375 L 796.324219 324.34375 C 798.703125 324.34375 800.980469 323.398438 802.660156 321.71875 L 811.621094 312.769531 C 813.300781 311.09375 814.246094 308.820312 814.246094 306.441406 L 814.246094 286.023438 L 835 279.136719 C 838.640625 277.914062 841.125 274.488281 841.125 270.640625 L 841.125 234.84375 C 841.125 231.449219 839.199219 228.339844 836.191406 226.835938 L 823.207031 220.367188 L 823.207031 190.09375 C 823.207031 185.964844 820.40625 182.402344 816.414062 181.421875 L 787.363281 174.148438 L 787.363281 163.242188 C 787.363281 160.863281 786.417969 158.59375 784.738281 156.914062 L 766.820312 139.015625 C 765.140625 137.335938 762.863281 136.390625 760.484375 136.390625 L 742.5625 136.390625 C 739.554688 136.390625 736.753906 137.894531 735.109375 140.378906 L 724.644531 156.074219 L 714.179688 140.378906 C 712.53125 137.894531 709.734375 136.390625 706.722656 136.390625 L 688.800781 136.390625 C 686.421875 136.390625 684.148438 137.335938 682.46875 139.015625 L 664.546875 156.914062 C 662.867188 158.59375 661.921875 160.863281 661.921875 163.242188 L 661.921875 174.148438 L 632.871094 181.421875 C 628.878906 182.402344 626.082031 185.964844 626.082031 190.09375 L 626.082031 220.367188 L 613.09375 226.835938 C 610.085938 228.339844 608.160156 231.449219 608.160156 234.84375 L 608.160156 270.640625 " fill-opacity="1" fill-rule="nonzero"/></g><path fill="#23497d" d="M 691.425781 303.820312 L 704.097656 291.164062 L 697.761719 284.835938 L 697.761719 261.691406 L 679.84375 261.691406 L 679.84375 288.542969 C 679.84375 290.917969 680.785156 293.191406 682.46875 294.871094 L 691.425781 303.820312 " fill-opacity="1" fill-rule="nonzero"/><path fill="#23497d" d="M 766.820312 294.871094 C 768.5 293.191406 769.445312 290.917969 769.445312 288.542969 L 769.445312 261.691406 L 751.523438 261.691406 L 751.523438 284.835938 L 745.1875 291.164062 L 757.859375 303.820312 L 766.820312 294.871094 " fill-opacity="1" fill-rule="nonzero"/><g clip-path="url(#1a35609fe0)"><path fill="#23497d" d="M 247.054688 404.414062 L 276.613281 404.414062 L 276.613281 434.371094 C 276.613281 434.726562 276.644531 435.074219 276.714844 435.421875 C 276.785156 435.765625 276.886719 436.101562 277.019531 436.429688 C 277.15625 436.753906 277.320312 437.0625 277.515625 437.359375 C 277.714844 437.652344 277.9375 437.921875 278.183594 438.171875 C 278.433594 438.421875 278.707031 438.644531 279 438.839844 C 279.292969 439.035156 279.601562 439.203125 279.929688 439.335938 C 280.253906 439.472656 280.589844 439.574219 280.9375 439.644531 C 281.28125 439.710938 281.632812 439.746094 281.984375 439.746094 C 282.339844 439.746094 282.6875 439.710938 283.035156 439.644531 C 283.378906 439.574219 283.714844 439.472656 284.042969 439.335938 C 284.367188 439.203125 284.675781 439.035156 284.972656 438.839844 C 285.265625 438.644531 285.535156 438.421875 285.785156 438.171875 C 286.035156 437.921875 286.257812 437.652344 286.453125 437.359375 C 286.648438 437.0625 286.816406 436.753906 286.949219 436.429688 C 287.085938 436.101562 287.1875 435.765625 287.253906 435.421875 C 287.324219 435.074219 287.359375 434.726562 287.359375 434.371094 L 287.65625 404.304688 L 306.839844 404.304688 L 306.839844 414.785156 C 306.839844 415.136719 306.875 415.488281 306.941406 415.832031 C 307.011719 416.179688 307.113281 416.515625 307.25 416.839844 C 307.382812 417.167969 307.546875 417.476562 307.746094 417.769531 C 307.941406 418.0625 308.164062 418.335938 308.414062 418.585938 C 308.664062 418.832031 308.933594 419.058594 309.226562 419.253906 C 309.519531 419.449219 309.832031 419.613281 310.15625 419.75 C 310.484375 419.882812 310.820312 419.984375 311.164062 420.054688 C 311.511719 420.125 311.859375 420.160156 312.214844 420.160156 C 312.566406 420.160156 312.914062 420.125 313.261719 420.054688 C 313.609375 419.984375 313.945312 419.882812 314.269531 419.75 C 314.59375 419.613281 314.90625 419.449219 315.199219 419.253906 C 315.492188 419.058594 315.761719 418.832031 316.011719 418.585938 C 316.261719 418.335938 316.484375 418.0625 316.679688 417.769531 C 316.878906 417.476562 317.042969 417.167969 317.179688 416.839844 C 317.3125 416.515625 317.414062 416.179688 317.484375 415.832031 C 317.550781 415.488281 317.585938 415.136719 317.585938 414.785156 L 317.585938 404.226562 L 336.394531 404.226562 L 336.394531 412.851562 C 336.394531 413.203125 336.429688 413.550781 336.5 413.898438 C 336.566406 414.246094 336.667969 414.582031 336.804688 414.90625 C 336.9375 415.234375 337.105469 415.542969 337.300781 415.835938 C 337.496094 416.128906 337.71875 416.398438 337.96875 416.648438 C 338.21875 416.898438 338.488281 417.121094 338.785156 417.316406 C 339.078125 417.515625 339.386719 417.679688 339.710938 417.816406 C 340.039062 417.949219 340.375 418.050781 340.71875 418.121094 C 341.066406 418.1875 341.417969 418.222656 341.769531 418.222656 C 342.121094 418.222656 342.472656 418.1875 342.816406 418.121094 C 343.164062 418.050781 343.5 417.949219 343.824219 417.816406 C 344.152344 417.679688 344.460938 417.515625 344.753906 417.316406 C 345.046875 417.121094 345.320312 416.898438 345.570312 416.648438 C 345.820312 416.398438 346.042969 416.128906 346.238281 415.835938 C 346.433594 415.542969 346.597656 415.234375 346.734375 414.90625 C 346.867188 414.582031 346.972656 414.246094 347.039062 413.898438 C 347.109375 413.550781 347.144531 413.203125 347.144531 412.851562 L 347.144531 404.035156 L 365.953125 404.035156 L 365.953125 414.785156 C 365.953125 415.136719 365.984375 415.488281 366.054688 415.832031 C 366.125 416.179688 366.226562 416.515625 366.359375 416.839844 C 366.496094 417.167969 366.660156 417.476562 366.855469 417.769531 C 367.054688 418.0625 367.277344 418.335938 367.523438 418.585938 C 367.773438 418.832031 368.046875 419.058594 368.339844 419.253906 C 368.632812 419.449219 368.941406 419.613281 369.269531 419.75 C 369.59375 419.882812 369.929688 419.984375 370.277344 420.054688 C 370.621094 420.125 370.972656 420.160156 371.324219 420.160156 C 371.679688 420.160156 372.027344 420.125 372.375 420.054688 C 372.71875 419.984375 373.054688 419.882812 373.382812 419.75 C 373.707031 419.613281 374.015625 419.449219 374.3125 419.253906 C 374.605469 419.058594 374.875 418.832031 375.125 418.585938 C 375.375 418.335938 375.597656 418.0625 375.792969 417.769531 C 375.988281 417.476562 376.15625 417.167969 376.289062 416.839844 C 376.425781 416.515625 376.527344 416.179688 376.597656 415.832031 C 376.664062 415.488281 376.699219 415.136719 376.699219 414.785156 L 376.699219 404.035156 L 395.9375 404.035156 L 395.9375 414.785156 C 395.9375 415.136719 395.972656 415.488281 396.039062 415.832031 C 396.109375 416.179688 396.210938 416.515625 396.347656 416.839844 C 396.480469 417.167969 396.648438 417.476562 396.84375 417.769531 C 397.039062 418.0625 397.261719 418.335938 397.511719 418.585938 C 397.761719 418.832031 398.03125 419.058594 398.324219 419.253906 C 398.617188 419.449219 398.929688 419.613281 399.253906 419.75 C 399.582031 419.882812 399.917969 419.984375 400.261719 420.054688 C 400.609375 420.125 400.957031 420.160156 401.3125 420.160156 C 401.664062 420.160156 402.011719 420.125 402.359375 420.054688 C 402.707031 419.984375 403.042969 419.882812 403.367188 419.75 C 403.695312 419.613281 404.003906 419.449219 404.296875 419.253906 C 404.589844 419.058594 404.863281 418.832031 405.109375 418.585938 C 405.359375 418.335938 405.582031 418.0625 405.777344 417.769531 C 405.976562 417.476562 406.140625 417.167969 406.277344 416.839844 C 406.410156 416.515625 406.511719 416.179688 406.582031 415.832031 C 406.652344 415.488281 406.683594 415.136719 406.683594 414.785156 L 406.683594 404.035156 L 425.492188 404.035156 L 425.492188 414.785156 C 425.492188 415.136719 425.527344 415.488281 425.597656 415.832031 C 425.664062 416.179688 425.765625 416.515625 425.902344 416.839844 C 426.039062 417.167969 426.203125 417.476562 426.398438 417.769531 C 426.59375 418.0625 426.816406 418.335938 427.066406 418.585938 C 427.316406 418.832031 427.589844 419.058594 427.882812 419.253906 C 428.175781 419.449219 428.484375 419.613281 428.8125 419.75 C 429.136719 419.882812 429.472656 419.984375 429.820312 420.054688 C 430.164062 420.125 430.515625 420.160156 430.867188 420.160156 C 431.21875 420.160156 431.570312 420.125 431.914062 420.054688 C 432.261719 419.984375 432.597656 419.882812 432.921875 419.75 C 433.25 419.613281 433.558594 419.449219 433.851562 419.253906 C 434.144531 419.058594 434.417969 418.832031 434.667969 418.585938 C 434.917969 418.335938 435.140625 418.0625 435.335938 417.769531 C 435.53125 417.476562 435.695312 417.167969 435.832031 416.839844 C 435.96875 416.515625 436.070312 416.179688 436.136719 415.832031 C 436.207031 415.488281 436.242188 415.136719 436.242188 414.785156 L 436.242188 404.035156 L 455.183594 404.035156 L 455.183594 412.984375 C 455.183594 413.335938 455.21875 413.6875 455.285156 414.03125 C 455.355469 414.378906 455.457031 414.714844 455.59375 415.039062 C 455.726562 415.367188 455.894531 415.675781 456.089844 415.96875 C 456.285156 416.261719 456.507812 416.535156 456.757812 416.785156 C 457.007812 417.035156 457.277344 417.257812 457.570312 417.453125 C 457.867188 417.648438 458.175781 417.8125 458.5 417.949219 C 458.828125 418.085938 459.164062 418.1875 459.507812 418.253906 C 459.855469 418.324219 460.203125 418.359375 460.558594 418.359375 C 460.910156 418.359375 461.261719 418.324219 461.605469 418.253906 C 461.953125 418.1875 462.289062 418.085938 462.613281 417.949219 C 462.941406 417.8125 463.25 417.648438 463.542969 417.453125 C 463.835938 417.257812 464.109375 417.035156 464.359375 416.785156 C 464.605469 416.535156 464.828125 416.261719 465.027344 415.96875 C 465.222656 415.675781 465.386719 415.367188 465.523438 415.039062 C 465.65625 414.714844 465.757812 414.378906 465.828125 414.03125 C 465.898438 413.6875 465.929688 413.335938 465.929688 412.984375 L 465.929688 403.820312 L 495.113281 403.820312 C 495.464844 403.820312 495.8125 403.789062 496.160156 403.71875 C 496.503906 403.648438 496.84375 403.546875 497.167969 403.414062 C 497.492188 403.277344 497.804688 403.113281 498.097656 402.917969 C 498.390625 402.71875 498.660156 402.496094 498.910156 402.246094 C 499.160156 402 499.382812 401.726562 499.578125 401.433594 C 499.777344 401.140625 499.941406 400.832031 500.074219 400.503906 C 500.210938 400.179688 500.3125 399.84375 500.382812 399.496094 C 500.449219 399.152344 500.484375 398.800781 500.484375 398.449219 C 500.484375 398.09375 500.449219 397.746094 500.382812 397.398438 C 500.3125 397.054688 500.210938 396.71875 500.074219 396.390625 C 499.941406 396.066406 499.777344 395.757812 499.578125 395.460938 C 499.382812 395.167969 499.160156 394.898438 498.910156 394.648438 C 498.660156 394.398438 498.390625 394.175781 498.097656 393.980469 C 497.804688 393.785156 497.492188 393.617188 497.167969 393.484375 C 496.84375 393.347656 496.503906 393.246094 496.160156 393.175781 C 495.8125 393.109375 495.464844 393.074219 495.113281 393.074219 L 287.789062 393.636719 L 286.957031 186.398438 C 286.957031 186.042969 286.921875 185.695312 286.851562 185.347656 C 286.785156 185.003906 286.683594 184.667969 286.546875 184.339844 C 286.410156 184.015625 286.246094 183.703125 286.050781 183.410156 C 285.855469 183.117188 285.632812 182.847656 285.382812 182.597656 C 285.132812 182.347656 284.859375 182.125 284.566406 181.929688 C 284.273438 181.734375 283.964844 181.566406 283.636719 181.433594 C 283.3125 181.296875 282.976562 181.195312 282.628906 181.125 C 282.285156 181.058594 281.933594 181.023438 281.582031 181.023438 C 281.230469 181.023438 280.878906 181.058594 280.535156 181.125 C 280.1875 181.195312 279.851562 181.296875 279.527344 181.433594 C 279.199219 181.566406 278.890625 181.734375 278.597656 181.929688 C 278.304688 182.125 278.03125 182.347656 277.78125 182.597656 C 277.53125 182.847656 277.308594 183.117188 277.113281 183.410156 C 276.917969 183.703125 276.753906 184.015625 276.617188 184.339844 C 276.480469 184.667969 276.378906 185.003906 276.3125 185.347656 C 276.242188 185.695312 276.207031 186.042969 276.207031 186.398438 L 276.746094 393.476562 L 247.027344 393.476562 C 246.675781 393.476562 246.324219 393.511719 245.980469 393.582031 C 245.632812 393.648438 245.296875 393.75 244.972656 393.886719 C 244.644531 394.019531 244.335938 394.1875 244.042969 394.382812 C 243.75 394.578125 243.476562 394.800781 243.230469 395.050781 C 242.980469 395.300781 242.757812 395.570312 242.558594 395.867188 C 242.363281 396.160156 242.199219 396.46875 242.0625 396.792969 C 241.929688 397.121094 241.828125 397.457031 241.757812 397.804688 C 241.6875 398.148438 241.65625 398.5 241.65625 398.851562 C 241.65625 399.203125 241.6875 399.554688 241.757812 399.898438 C 241.828125 400.246094 241.929688 400.582031 242.0625 400.90625 C 242.199219 401.234375 242.363281 401.542969 242.558594 401.835938 C 242.757812 402.128906 242.980469 402.402344 243.230469 402.652344 C 243.476562 402.902344 243.75 403.125 244.042969 403.320312 C 244.335938 403.515625 244.644531 403.679688 244.972656 403.816406 C 245.296875 403.949219 245.632812 404.054688 245.980469 404.121094 C 246.324219 404.191406 246.675781 404.226562 247.027344 404.226562 Z M 247.054688 404.414062 " fill-opacity="1" fill-rule="nonzero"/></g><path fill="#23497d" d="M 411.386719 265.125 C 396.476562 273.640625 382.90625 276.382812 369.792969 279.042969 C 354.019531 282.238281 339.136719 285.25 326.398438 298.308594 C 314.226562 310.800781 307.589844 328.695312 307.082031 351.480469 C 307.070312 351.832031 307.09375 352.183594 307.152344 352.53125 C 307.210938 352.878906 307.300781 353.21875 307.425781 353.550781 C 307.554688 353.878906 307.710938 354.195312 307.894531 354.496094 C 308.082031 354.792969 308.296875 355.070312 308.539062 355.328125 C 308.78125 355.585938 309.046875 355.816406 309.335938 356.019531 C 309.621094 356.226562 309.925781 356.402344 310.25 356.546875 C 310.570312 356.691406 310.902344 356.800781 311.25 356.882812 C 311.59375 356.960938 311.941406 357.003906 312.292969 357.015625 L 312.453125 357.015625 C 312.800781 357.015625 313.144531 356.984375 313.484375 356.917969 C 313.824219 356.851562 314.152344 356.753906 314.476562 356.621094 C 314.796875 356.492188 315.101562 356.332031 315.390625 356.144531 C 315.679688 355.957031 315.949219 355.742188 316.199219 355.5 C 316.449219 355.257812 316.671875 354.996094 316.867188 354.710938 C 317.066406 354.425781 317.234375 354.128906 317.375 353.808594 C 317.515625 353.492188 317.621094 353.167969 317.699219 352.828125 C 317.773438 352.492188 317.816406 352.148438 317.828125 351.804688 C 318.417969 331.785156 323.902344 316.308594 334.136719 305.804688 C 344.375 295.296875 356.65625 292.664062 371.96875 289.683594 C 385.242188 286.996094 400.316406 283.957031 416.734375 274.554688 C 436.105469 263.484375 452.363281 246.261719 465.097656 223.316406 C 465.238281 223.011719 465.347656 222.695312 465.425781 222.367188 C 465.507812 222.042969 465.558594 221.710938 465.574219 221.378906 C 465.59375 221.042969 465.582031 220.710938 465.535156 220.375 C 465.492188 220.042969 465.417969 219.71875 465.3125 219.398438 C 465.207031 219.082031 465.074219 218.777344 464.910156 218.480469 C 464.75 218.1875 464.558594 217.914062 464.347656 217.65625 C 464.132812 217.394531 463.894531 217.160156 463.636719 216.945312 C 463.378906 216.730469 463.105469 216.542969 462.808594 216.382812 C 462.515625 216.21875 462.210938 216.085938 461.890625 215.980469 C 461.574219 215.875 461.246094 215.800781 460.914062 215.757812 C 460.582031 215.714844 460.25 215.699219 459.914062 215.71875 C 459.578125 215.738281 459.25 215.785156 458.921875 215.867188 C 458.597656 215.945312 458.28125 216.058594 457.976562 216.195312 C 457.671875 216.335938 457.382812 216.503906 457.109375 216.695312 C 456.835938 216.890625 456.582031 217.105469 456.347656 217.347656 C 456.113281 217.589844 455.90625 217.847656 455.722656 218.128906 C 443.898438 239.195312 429.011719 255.046875 411.386719 265.125 Z M 411.386719 265.125 " fill-opacity="1" fill-rule="nonzero"/><path fill="#23497d" d="M 369.335938 317.222656 C 369.335938 316.394531 369.257812 315.574219 369.09375 314.765625 C 368.933594 313.953125 368.695312 313.164062 368.378906 312.398438 C 368.0625 311.636719 367.671875 310.910156 367.214844 310.222656 C 366.753906 309.535156 366.230469 308.898438 365.644531 308.3125 C 365.0625 307.726562 364.425781 307.203125 363.734375 306.746094 C 363.046875 306.285156 362.320312 305.898438 361.558594 305.582031 C 360.792969 305.261719 360.003906 305.023438 359.195312 304.863281 C 358.382812 304.703125 357.5625 304.621094 356.734375 304.621094 C 355.90625 304.621094 355.089844 304.703125 354.277344 304.863281 C 353.464844 305.023438 352.675781 305.261719 351.914062 305.582031 C 351.148438 305.898438 350.421875 306.285156 349.734375 306.746094 C 349.046875 307.203125 348.410156 307.726562 347.824219 308.3125 C 347.238281 308.898438 346.71875 309.535156 346.257812 310.222656 C 345.796875 310.910156 345.410156 311.636719 345.09375 312.398438 C 344.777344 313.164062 344.539062 313.953125 344.375 314.765625 C 344.214844 315.574219 344.132812 316.394531 344.132812 317.222656 C 344.132812 318.050781 344.214844 318.871094 344.375 319.679688 C 344.539062 320.492188 344.777344 321.28125 345.09375 322.046875 C 345.410156 322.808594 345.796875 323.535156 346.257812 324.222656 C 346.71875 324.910156 347.238281 325.546875 347.824219 326.132812 C 348.410156 326.71875 349.046875 327.242188 349.734375 327.699219 C 350.421875 328.160156 351.148438 328.546875 351.914062 328.863281 C 352.675781 329.183594 353.464844 329.421875 354.277344 329.582031 C 355.089844 329.742188 355.90625 329.824219 356.734375 329.824219 C 357.5625 329.824219 358.382812 329.742188 359.195312 329.582031 C 360.003906 329.421875 360.792969 329.183594 361.558594 328.863281 C 362.320312 328.546875 363.046875 328.160156 363.734375 327.699219 C 364.425781 327.242188 365.0625 326.71875 365.644531 326.132812 C 366.230469 325.546875 366.753906 324.910156 367.214844 324.222656 C 367.671875 323.535156 368.0625 322.808594 368.378906 322.046875 C 368.695312 321.28125 368.933594 320.492188 369.09375 319.679688 C 369.257812 318.871094 369.335938 318.050781 369.335938 317.222656 Z M 356.734375 319.078125 C 356.488281 319.078125 356.253906 319.03125 356.027344 318.933594 C 355.796875 318.839844 355.597656 318.707031 355.425781 318.535156 C 355.25 318.359375 355.117188 318.160156 355.023438 317.933594 C 354.929688 317.703125 354.882812 317.46875 354.882812 317.222656 C 354.882812 316.976562 354.929688 316.742188 355.023438 316.511719 C 355.117188 316.285156 355.25 316.085938 355.425781 315.910156 C 355.597656 315.738281 355.796875 315.605469 356.027344 315.511719 C 356.253906 315.414062 356.488281 315.367188 356.734375 315.367188 C 356.980469 315.367188 357.21875 315.414062 357.445312 315.511719 C 357.671875 315.605469 357.871094 315.738281 358.046875 315.910156 C 358.21875 316.085938 358.355469 316.285156 358.449219 316.511719 C 358.542969 316.742188 358.589844 316.976562 358.589844 317.222656 C 358.589844 317.46875 358.542969 317.703125 358.449219 317.933594 C 358.355469 318.160156 358.21875 318.359375 358.046875 318.535156 C 357.871094 318.707031 357.671875 318.839844 357.445312 318.933594 C 357.21875 319.03125 356.980469 319.078125 356.734375 319.078125 Z M 356.734375 319.078125 " fill-opacity="1" fill-rule="nonzero"/><path fill="#23497d" d="M 370.949219 360.589844 C 371.777344 360.589844 372.597656 360.507812 373.40625 360.347656 C 374.21875 360.1875 375.007812 359.945312 375.769531 359.628906 C 376.535156 359.3125 377.261719 358.925781 377.949219 358.464844 C 378.636719 358.007812 379.273438 357.484375 379.859375 356.898438 C 380.445312 356.3125 380.96875 355.675781 381.425781 354.988281 C 381.886719 354.300781 382.273438 353.574219 382.589844 352.808594 C 382.90625 352.046875 383.148438 351.257812 383.308594 350.445312 C 383.46875 349.636719 383.550781 348.816406 383.550781 347.988281 C 383.550781 347.160156 383.46875 346.339844 383.308594 345.53125 C 383.148438 344.71875 382.90625 343.929688 382.589844 343.164062 C 382.273438 342.402344 381.886719 341.675781 381.425781 340.988281 C 380.96875 340.296875 380.445312 339.664062 379.859375 339.078125 C 379.273438 338.492188 378.636719 337.96875 377.949219 337.511719 C 377.261719 337.050781 376.535156 336.664062 375.769531 336.34375 C 375.007812 336.027344 374.21875 335.789062 373.40625 335.628906 C 372.597656 335.46875 371.777344 335.386719 370.949219 335.386719 C 370.121094 335.386719 369.300781 335.46875 368.492188 335.628906 C 367.679688 335.789062 366.890625 336.027344 366.125 336.34375 C 365.363281 336.664062 364.636719 337.050781 363.949219 337.511719 C 363.261719 337.96875 362.625 338.492188 362.039062 339.078125 C 361.453125 339.664062 360.929688 340.296875 360.472656 340.988281 C 360.011719 341.675781 359.625 342.402344 359.304688 343.164062 C 358.988281 343.929688 358.75 344.71875 358.589844 345.53125 C 358.429688 346.339844 358.347656 347.160156 358.347656 347.988281 C 358.347656 348.816406 358.429688 349.632812 358.59375 350.445312 C 358.757812 351.253906 358.996094 352.042969 359.3125 352.804688 C 359.632812 353.570312 360.019531 354.296875 360.480469 354.984375 C 360.9375 355.671875 361.460938 356.304688 362.046875 356.890625 C 362.628906 357.476562 363.265625 357.996094 363.953125 358.457031 C 364.640625 358.917969 365.367188 359.304688 366.128906 359.625 C 366.894531 359.941406 367.679688 360.179688 368.492188 360.34375 C 369.304688 360.503906 370.121094 360.585938 370.949219 360.589844 Z M 370.949219 346.132812 C 371.195312 346.132812 371.429688 346.179688 371.660156 346.273438 C 371.886719 346.367188 372.085938 346.503906 372.261719 346.675781 C 372.433594 346.851562 372.566406 347.050781 372.660156 347.277344 C 372.757812 347.503906 372.804688 347.742188 372.804688 347.988281 C 372.804688 348.234375 372.757812 348.46875 372.660156 348.699219 C 372.566406 348.925781 372.433594 349.125 372.261719 349.300781 C 372.085938 349.472656 371.886719 349.605469 371.660156 349.699219 C 371.429688 349.792969 371.195312 349.84375 370.949219 349.84375 C 370.703125 349.84375 370.464844 349.792969 370.238281 349.699219 C 370.011719 349.605469 369.8125 349.472656 369.636719 349.300781 C 369.464844 349.125 369.332031 348.925781 369.234375 348.699219 C 369.140625 348.46875 369.09375 348.234375 369.09375 347.988281 C 369.09375 347.742188 369.140625 347.503906 369.234375 347.277344 C 369.332031 347.050781 369.464844 346.851562 369.636719 346.675781 C 369.8125 346.503906 370.011719 346.367188 370.238281 346.273438 C 370.464844 346.179688 370.703125 346.132812 370.949219 346.132812 Z M 370.949219 346.132812 " fill-opacity="1" fill-rule="nonzero"/><path fill="#23497d" d="M 376.457031 321.496094 C 376.457031 322.324219 376.539062 323.140625 376.699219 323.953125 C 376.859375 324.765625 377.101562 325.554688 377.417969 326.316406 C 377.734375 327.082031 378.121094 327.808594 378.582031 328.496094 C 379.039062 329.183594 379.5625 329.820312 380.148438 330.40625 C 380.734375 330.992188 381.371094 331.511719 382.058594 331.972656 C 382.746094 332.433594 383.472656 332.820312 384.234375 333.136719 C 385 333.453125 385.789062 333.691406 386.601562 333.855469 C 387.410156 334.015625 388.230469 334.097656 389.058594 334.097656 C 389.886719 334.097656 390.707031 334.015625 391.515625 333.855469 C 392.328125 333.691406 393.117188 333.453125 393.882812 333.136719 C 394.644531 332.820312 395.371094 332.433594 396.058594 331.972656 C 396.746094 331.511719 397.382812 330.992188 397.96875 330.40625 C 398.554688 329.820312 399.078125 329.183594 399.535156 328.496094 C 399.996094 327.808594 400.382812 327.082031 400.699219 326.316406 C 401.019531 325.554688 401.257812 324.765625 401.417969 323.953125 C 401.578125 323.140625 401.660156 322.324219 401.660156 321.496094 C 401.660156 320.667969 401.578125 319.847656 401.417969 319.035156 C 401.257812 318.226562 401.019531 317.4375 400.699219 316.671875 C 400.382812 315.90625 399.996094 315.183594 399.535156 314.492188 C 399.078125 313.804688 398.554688 313.167969 397.96875 312.585938 C 397.382812 312 396.746094 311.476562 396.058594 311.015625 C 395.371094 310.558594 394.644531 310.167969 393.882812 309.851562 C 393.117188 309.535156 392.328125 309.296875 391.515625 309.136719 C 390.707031 308.972656 389.886719 308.894531 389.058594 308.894531 C 388.230469 308.894531 387.414062 308.976562 386.601562 309.140625 C 385.792969 309.300781 385.003906 309.542969 384.242188 309.859375 C 383.476562 310.175781 382.75 310.566406 382.0625 311.023438 C 381.375 311.484375 380.742188 312.007812 380.15625 312.59375 C 379.570312 313.175781 379.050781 313.8125 378.589844 314.5 C 378.128906 315.1875 377.742188 315.914062 377.421875 316.675781 C 377.105469 317.441406 376.867188 318.226562 376.703125 319.039062 C 376.542969 319.847656 376.457031 320.667969 376.457031 321.496094 Z M 390.914062 321.496094 C 390.914062 321.742188 390.867188 321.976562 390.773438 322.203125 C 390.675781 322.429688 390.542969 322.632812 390.371094 322.804688 C 390.195312 322.980469 389.996094 323.113281 389.769531 323.207031 C 389.542969 323.300781 389.304688 323.347656 389.058594 323.347656 C 388.8125 323.347656 388.578125 323.300781 388.347656 323.207031 C 388.121094 323.113281 387.921875 322.980469 387.746094 322.804688 C 387.574219 322.632812 387.441406 322.429688 387.347656 322.203125 C 387.25 321.976562 387.203125 321.742188 387.203125 321.496094 C 387.203125 321.25 387.25 321.011719 387.347656 320.785156 C 387.441406 320.558594 387.574219 320.359375 387.746094 320.183594 C 387.921875 320.011719 388.121094 319.875 388.347656 319.78125 C 388.578125 319.6875 388.8125 319.640625 389.058594 319.640625 C 389.304688 319.640625 389.542969 319.6875 389.769531 319.78125 C 389.996094 319.875 390.195312 320.011719 390.371094 320.183594 C 390.542969 320.359375 390.675781 320.558594 390.773438 320.785156 C 390.867188 321.011719 390.914062 321.25 390.914062 321.496094 Z M 390.914062 321.496094 " fill-opacity="1" fill-rule="nonzero"/><path fill="#23497d" d="M 418.15625 297.527344 C 418.15625 296.699219 418.078125 295.878906 417.914062 295.070312 C 417.753906 294.257812 417.515625 293.46875 417.199219 292.707031 C 416.882812 291.941406 416.492188 291.214844 416.035156 290.527344 C 415.574219 289.839844 415.050781 289.203125 414.46875 288.617188 C 413.882812 288.03125 413.246094 287.507812 412.558594 287.050781 C 411.871094 286.589844 411.144531 286.203125 410.378906 285.886719 C 409.613281 285.570312 408.828125 285.328125 408.015625 285.167969 C 407.203125 285.007812 406.382812 284.925781 405.554688 284.925781 C 404.730469 284.925781 403.910156 285.007812 403.097656 285.167969 C 402.285156 285.328125 401.5 285.570312 400.734375 285.886719 C 399.96875 286.203125 399.242188 286.589844 398.554688 287.050781 C 397.867188 287.507812 397.230469 288.03125 396.644531 288.617188 C 396.0625 289.203125 395.539062 289.839844 395.078125 290.527344 C 394.617188 291.214844 394.230469 291.941406 393.914062 292.707031 C 393.597656 293.46875 393.359375 294.257812 393.195312 295.070312 C 393.035156 295.878906 392.953125 296.699219 392.953125 297.527344 C 392.953125 298.355469 393.035156 299.175781 393.195312 299.984375 C 393.359375 300.796875 393.597656 301.585938 393.914062 302.351562 C 394.230469 303.113281 394.617188 303.839844 395.078125 304.527344 C 395.539062 305.214844 396.0625 305.851562 396.644531 306.4375 C 397.230469 307.023438 397.867188 307.546875 398.554688 308.003906 C 399.242188 308.464844 399.96875 308.851562 400.734375 309.171875 C 401.5 309.488281 402.285156 309.726562 403.097656 309.886719 C 403.910156 310.046875 404.730469 310.128906 405.554688 310.128906 C 406.382812 310.128906 407.203125 310.046875 408.015625 309.886719 C 408.828125 309.726562 409.613281 309.488281 410.378906 309.171875 C 411.144531 308.851562 411.871094 308.464844 412.558594 308.003906 C 413.246094 307.546875 413.882812 307.023438 414.46875 306.4375 C 415.050781 305.851562 415.574219 305.214844 416.035156 304.527344 C 416.492188 303.839844 416.882812 303.113281 417.199219 302.351562 C 417.515625 301.585938 417.753906 300.796875 417.914062 299.984375 C 418.078125 299.175781 418.15625 298.355469 418.15625 297.527344 Z M 403.730469 297.527344 C 403.726562 297.28125 403.769531 297.046875 403.859375 296.820312 C 403.953125 296.59375 404.082031 296.394531 404.253906 296.21875 C 404.425781 296.042969 404.625 295.910156 404.851562 295.816406 C 405.078125 295.722656 405.3125 295.671875 405.554688 295.671875 C 405.800781 295.671875 406.039062 295.71875 406.265625 295.816406 C 406.492188 295.910156 406.695312 296.042969 406.867188 296.214844 C 407.042969 296.390625 407.175781 296.589844 407.269531 296.816406 C 407.363281 297.046875 407.410156 297.28125 407.410156 297.527344 C 407.410156 297.773438 407.363281 298.011719 407.269531 298.238281 C 407.175781 298.464844 407.042969 298.664062 406.867188 298.839844 C 406.695312 299.011719 406.492188 299.144531 406.265625 299.242188 C 406.039062 299.335938 405.800781 299.382812 405.554688 299.382812 C 405.3125 299.382812 405.078125 299.335938 404.851562 299.238281 C 404.625 299.144531 404.425781 299.011719 404.253906 298.835938 C 404.082031 298.664062 403.953125 298.460938 403.859375 298.234375 C 403.769531 298.007812 403.726562 297.773438 403.730469 297.527344 Z M 403.730469 297.527344 " fill-opacity="1" fill-rule="nonzero"/><path fill="#23497d" d="M 436 321.496094 C 435.992188 320.667969 435.90625 319.851562 435.742188 319.042969 C 435.574219 318.230469 435.332031 317.445312 435.011719 316.683594 C 434.691406 315.921875 434.300781 315.199219 433.835938 314.515625 C 433.375 313.832031 432.847656 313.199219 432.261719 312.617188 C 431.671875 312.035156 431.035156 311.519531 430.347656 311.0625 C 429.65625 310.605469 428.929688 310.222656 428.164062 309.910156 C 427.398438 309.597656 426.613281 309.363281 425.800781 309.203125 C 424.988281 309.046875 424.171875 308.96875 423.34375 308.972656 C 422.519531 308.976562 421.699219 309.0625 420.890625 309.226562 C 420.082031 309.390625 419.292969 309.632812 418.53125 309.949219 C 417.769531 310.269531 417.046875 310.660156 416.359375 311.121094 C 415.675781 311.582031 415.042969 312.105469 414.457031 312.691406 C 413.875 313.28125 413.355469 313.917969 412.898438 314.605469 C 412.441406 315.292969 412.058594 316.019531 411.742188 316.785156 C 411.429688 317.546875 411.191406 318.335938 411.03125 319.148438 C 410.875 319.957031 410.792969 320.777344 410.796875 321.601562 C 410.796875 322.429688 410.878906 323.246094 411.042969 324.058594 C 411.207031 324.867188 411.445312 325.652344 411.761719 326.417969 C 412.082031 327.179688 412.46875 327.902344 412.929688 328.589844 C 413.390625 329.277344 413.910156 329.910156 414.496094 330.496094 C 415.082031 331.078125 415.71875 331.601562 416.40625 332.058594 C 417.09375 332.515625 417.816406 332.90625 418.582031 333.21875 C 419.34375 333.535156 420.132812 333.773438 420.941406 333.9375 C 421.753906 334.097656 422.570312 334.175781 423.398438 334.175781 C 424.226562 334.175781 425.050781 334.09375 425.863281 333.929688 C 426.679688 333.765625 427.46875 333.523438 428.234375 333.203125 C 429 332.882812 429.726562 332.492188 430.417969 332.027344 C 431.105469 331.566406 431.742188 331.039062 432.328125 330.449219 C 432.914062 329.859375 433.4375 329.21875 433.894531 328.527344 C 434.355469 327.835938 434.742188 327.105469 435.054688 326.339844 C 435.371094 325.570312 435.609375 324.777344 435.765625 323.964844 C 435.925781 323.148438 436.003906 322.324219 436 321.496094 Z M 421.542969 321.496094 C 421.542969 321.25 421.589844 321.011719 421.683594 320.785156 C 421.777344 320.558594 421.914062 320.359375 422.085938 320.183594 C 422.261719 320.011719 422.460938 319.875 422.6875 319.78125 C 422.914062 319.6875 423.152344 319.640625 423.398438 319.640625 C 423.644531 319.640625 423.878906 319.6875 424.105469 319.78125 C 424.335938 319.875 424.535156 320.011719 424.707031 320.183594 C 424.882812 320.359375 425.015625 320.558594 425.109375 320.785156 C 425.203125 321.011719 425.25 321.25 425.25 321.496094 C 425.25 321.742188 425.203125 321.976562 425.109375 322.203125 C 425.015625 322.429688 424.882812 322.632812 424.707031 322.804688 C 424.535156 322.980469 424.335938 323.113281 424.105469 323.207031 C 423.878906 323.300781 423.644531 323.347656 423.398438 323.347656 C 423.152344 323.347656 422.914062 323.300781 422.6875 323.207031 C 422.460938 323.113281 422.261719 322.980469 422.085938 322.804688 C 421.914062 322.632812 421.777344 322.429688 421.683594 322.203125 C 421.589844 321.976562 421.542969 321.742188 421.542969 321.496094 Z M 421.542969 321.496094 " fill-opacity="1" fill-rule="nonzero"/><path fill="#23497d" d="M 420.738281 347.988281 C 420.738281 347.160156 420.65625 346.339844 420.496094 345.53125 C 420.332031 344.71875 420.09375 343.929688 419.777344 343.164062 C 419.460938 342.402344 419.074219 341.675781 418.613281 340.988281 C 418.152344 340.296875 417.632812 339.664062 417.046875 339.078125 C 416.460938 338.492188 415.824219 337.96875 415.136719 337.511719 C 414.449219 337.050781 413.722656 336.664062 412.957031 336.34375 C 412.195312 336.027344 411.40625 335.789062 410.59375 335.628906 C 409.78125 335.46875 408.964844 335.386719 408.136719 335.386719 C 407.308594 335.386719 406.488281 335.46875 405.675781 335.628906 C 404.867188 335.789062 404.078125 336.027344 403.3125 336.34375 C 402.550781 336.664062 401.824219 337.050781 401.136719 337.511719 C 400.445312 337.96875 399.808594 338.492188 399.226562 339.078125 C 398.640625 339.664062 398.117188 340.296875 397.65625 340.988281 C 397.199219 341.675781 396.808594 342.402344 396.492188 343.164062 C 396.175781 343.929688 395.9375 344.71875 395.777344 345.53125 C 395.613281 346.339844 395.535156 347.160156 395.535156 347.988281 C 395.535156 348.816406 395.613281 349.636719 395.777344 350.445312 C 395.9375 351.257812 396.175781 352.046875 396.492188 352.808594 C 396.808594 353.574219 397.199219 354.300781 397.65625 354.988281 C 398.117188 355.675781 398.640625 356.3125 399.226562 356.898438 C 399.808594 357.484375 400.445312 358.007812 401.136719 358.464844 C 401.824219 358.925781 402.550781 359.3125 403.3125 359.628906 C 404.078125 359.945312 404.867188 360.1875 405.675781 360.347656 C 406.488281 360.507812 407.308594 360.589844 408.136719 360.589844 C 408.964844 360.589844 409.78125 360.507812 410.59375 360.347656 C 411.40625 360.1875 412.195312 359.945312 412.957031 359.628906 C 413.722656 359.3125 414.449219 358.925781 415.136719 358.464844 C 415.824219 358.007812 416.460938 357.484375 417.046875 356.898438 C 417.632812 356.3125 418.152344 355.675781 418.613281 354.988281 C 419.074219 354.300781 419.460938 353.574219 419.777344 352.808594 C 420.09375 352.046875 420.332031 351.257812 420.496094 350.445312 C 420.65625 349.636719 420.738281 348.816406 420.738281 347.988281 Z M 406.308594 347.988281 C 406.304688 347.742188 406.347656 347.507812 406.441406 347.28125 C 406.53125 347.054688 406.664062 346.851562 406.835938 346.679688 C 407.007812 346.503906 407.203125 346.371094 407.429688 346.277344 C 407.65625 346.179688 407.890625 346.132812 408.136719 346.132812 C 408.382812 346.132812 408.617188 346.179688 408.84375 346.273438 C 409.074219 346.367188 409.273438 346.503906 409.445312 346.675781 C 409.621094 346.851562 409.753906 347.050781 409.847656 347.277344 C 409.941406 347.503906 409.988281 347.742188 409.988281 347.988281 C 409.988281 348.234375 409.941406 348.46875 409.847656 348.699219 C 409.753906 348.925781 409.621094 349.125 409.445312 349.300781 C 409.273438 349.472656 409.074219 349.605469 408.84375 349.699219 C 408.617188 349.792969 408.382812 349.84375 408.136719 349.84375 C 407.890625 349.84375 407.65625 349.792969 407.429688 349.699219 C 407.203125 349.605469 407.007812 349.472656 406.835938 349.296875 C 406.664062 349.121094 406.53125 348.921875 406.441406 348.695312 C 406.347656 348.46875 406.304688 348.234375 406.308594 347.988281 Z M 406.308594 347.988281 " fill-opacity="1" fill-rule="nonzero"/><path fill="#23497d" d="M 389.058594 385.523438 C 389.886719 385.523438 390.707031 385.441406 391.519531 385.28125 C 392.332031 385.121094 393.117188 384.882812 393.882812 384.5625 C 394.648438 384.246094 395.375 383.859375 396.0625 383.398438 C 396.75 382.9375 397.386719 382.414062 397.972656 381.828125 C 398.558594 381.246094 399.082031 380.605469 399.539062 379.917969 C 400 379.230469 400.386719 378.503906 400.703125 377.738281 C 401.019531 376.972656 401.257812 376.183594 401.417969 375.375 C 401.582031 374.5625 401.660156 373.742188 401.660156 372.914062 C 401.660156 372.085938 401.578125 371.265625 401.417969 370.453125 C 401.253906 369.640625 401.015625 368.855469 400.695312 368.089844 C 400.378906 367.324219 399.992188 366.597656 399.53125 365.910156 C 399.070312 365.222656 398.546875 364.585938 397.960938 364.003906 C 397.375 363.417969 396.738281 362.894531 396.046875 362.4375 C 395.359375 361.976562 394.632812 361.589844 393.867188 361.273438 C 393.101562 360.957031 392.3125 360.71875 391.5 360.558594 C 390.6875 360.398438 389.867188 360.320312 389.039062 360.320312 C 388.214844 360.320312 387.394531 360.402344 386.582031 360.566406 C 385.769531 360.730469 384.980469 360.96875 384.21875 361.289062 C 383.453125 361.605469 382.726562 361.996094 382.039062 362.457031 C 381.351562 362.917969 380.714844 363.441406 380.132812 364.027344 C 379.546875 364.613281 379.027344 365.25 378.566406 365.941406 C 378.109375 366.628906 377.722656 367.355469 377.40625 368.121094 C 377.089844 368.886719 376.855469 369.675781 376.695312 370.488281 C 376.535156 371.300781 376.457031 372.121094 376.457031 372.949219 C 376.457031 373.777344 376.542969 374.59375 376.703125 375.402344 C 376.867188 376.214844 377.105469 377 377.425781 377.761719 C 377.742188 378.527344 378.128906 379.25 378.589844 379.9375 C 379.050781 380.625 379.574219 381.257812 380.15625 381.84375 C 380.742188 382.425781 381.378906 382.949219 382.066406 383.40625 C 382.753906 383.863281 383.480469 384.25 384.242188 384.566406 C 385.007812 384.882812 385.792969 385.121094 386.605469 385.28125 C 387.414062 385.445312 388.234375 385.523438 389.058594 385.523438 Z M 389.058594 371.09375 C 389.304688 371.09375 389.542969 371.140625 389.769531 371.238281 C 389.996094 371.332031 390.195312 371.464844 390.371094 371.636719 C 390.542969 371.8125 390.675781 372.011719 390.773438 372.238281 C 390.867188 372.46875 390.914062 372.703125 390.914062 372.949219 C 390.914062 373.195312 390.867188 373.433594 390.773438 373.660156 C 390.675781 373.886719 390.542969 374.085938 390.371094 374.261719 C 390.195312 374.433594 389.996094 374.566406 389.769531 374.664062 C 389.542969 374.757812 389.304688 374.804688 389.058594 374.804688 C 388.8125 374.804688 388.578125 374.757812 388.347656 374.664062 C 388.121094 374.566406 387.921875 374.433594 387.746094 374.261719 C 387.574219 374.085938 387.441406 373.886719 387.347656 373.660156 C 387.25 373.433594 387.203125 373.195312 387.203125 372.949219 C 387.203125 372.703125 387.25 372.46875 387.347656 372.238281 C 387.441406 372.011719 387.574219 371.8125 387.746094 371.636719 C 387.921875 371.464844 388.121094 371.332031 388.347656 371.238281 C 388.578125 371.140625 388.8125 371.09375 389.058594 371.09375 Z M 389.058594 371.09375 " fill-opacity="1" fill-rule="nonzero"/><path fill="#23497d" d="M 319.039062 217.753906 C 318.78125 217.511719 318.507812 217.296875 318.214844 217.109375 C 317.917969 216.921875 317.605469 216.761719 317.28125 216.632812 C 316.957031 216.503906 316.621094 216.40625 316.277344 216.339844 C 315.933594 216.273438 315.585938 216.242188 315.234375 216.242188 C 314.886719 216.242188 314.539062 216.273438 314.195312 216.339844 C 313.851562 216.40625 313.515625 216.503906 313.191406 216.632812 C 312.863281 216.761719 312.554688 216.921875 312.257812 217.109375 C 311.964844 217.296875 311.6875 217.511719 311.433594 217.753906 L 298.644531 230.570312 C 298.394531 230.820312 298.175781 231.089844 297.980469 231.382812 C 297.785156 231.675781 297.621094 231.984375 297.488281 232.308594 C 297.351562 232.632812 297.253906 232.96875 297.183594 233.3125 C 297.117188 233.660156 297.082031 234.007812 297.082031 234.359375 C 297.082031 234.710938 297.117188 235.058594 297.183594 235.402344 C 297.253906 235.746094 297.351562 236.082031 297.488281 236.40625 C 297.621094 236.730469 297.785156 237.042969 297.980469 237.332031 C 298.175781 237.625 298.394531 237.898438 298.644531 238.148438 L 311.433594 250.882812 C 311.683594 251.132812 311.953125 251.355469 312.25 251.550781 C 312.542969 251.75 312.851562 251.914062 313.179688 252.050781 C 313.503906 252.183594 313.839844 252.285156 314.1875 252.355469 C 314.53125 252.425781 314.882812 252.457031 315.234375 252.457031 C 315.589844 252.457031 315.9375 252.425781 316.285156 252.355469 C 316.632812 252.285156 316.96875 252.183594 317.292969 252.050781 C 317.621094 251.914062 317.929688 251.75 318.222656 251.550781 C 318.515625 251.355469 318.789062 251.132812 319.039062 250.882812 L 331.828125 238.066406 C 332.074219 237.816406 332.296875 237.546875 332.492188 237.253906 C 332.6875 236.960938 332.851562 236.652344 332.984375 236.328125 C 333.117188 236 333.21875 235.667969 333.289062 235.320312 C 333.355469 234.976562 333.390625 234.628906 333.390625 234.277344 C 333.390625 233.925781 333.355469 233.578125 333.289062 233.234375 C 333.21875 232.886719 333.117188 232.554688 332.984375 232.230469 C 332.851562 231.902344 332.6875 231.59375 332.492188 231.300781 C 332.296875 231.007812 332.074219 230.738281 331.828125 230.488281 Z M 315.222656 239.542969 L 310.035156 234.359375 L 315.222656 229.171875 L 320.433594 234.359375 Z M 315.222656 239.542969 " fill-opacity="1" fill-rule="nonzero"/><path fill="#23497d" d="M 322.585938 268.535156 L 335.402344 281.324219 C 335.648438 281.574219 335.921875 281.792969 336.214844 281.988281 C 336.507812 282.183594 336.816406 282.347656 337.140625 282.480469 C 337.464844 282.617188 337.800781 282.71875 338.144531 282.785156 C 338.488281 282.855469 338.839844 282.886719 339.191406 282.886719 C 339.542969 282.886719 339.890625 282.855469 340.234375 282.785156 C 340.578125 282.71875 340.914062 282.617188 341.238281 282.480469 C 341.5625 282.347656 341.871094 282.183594 342.164062 281.988281 C 342.457031 281.792969 342.730469 281.574219 342.976562 281.324219 L 355.792969 268.535156 C 356.042969 268.285156 356.269531 268.015625 356.464844 267.722656 C 356.660156 267.425781 356.824219 267.117188 356.960938 266.792969 C 357.097656 266.464844 357.199219 266.128906 357.265625 265.78125 C 357.335938 265.4375 357.371094 265.085938 357.371094 264.734375 C 357.371094 264.378906 357.335938 264.03125 357.265625 263.683594 C 357.199219 263.339844 357.097656 263.003906 356.960938 262.675781 C 356.824219 262.351562 356.660156 262.039062 356.464844 261.746094 C 356.269531 261.453125 356.042969 261.179688 355.792969 260.933594 L 343.058594 248.195312 C 342.808594 247.949219 342.539062 247.726562 342.246094 247.53125 C 341.953125 247.335938 341.644531 247.171875 341.320312 247.039062 C 340.996094 246.90625 340.660156 246.804688 340.316406 246.734375 C 339.96875 246.667969 339.621094 246.632812 339.269531 246.632812 C 338.917969 246.632812 338.570312 246.667969 338.226562 246.734375 C 337.882812 246.804688 337.546875 246.90625 337.222656 247.039062 C 336.894531 247.171875 336.585938 247.335938 336.292969 247.53125 C 336.003906 247.726562 335.730469 247.949219 335.480469 248.195312 L 322.585938 260.933594 C 322.335938 261.179688 322.113281 261.453125 321.914062 261.746094 C 321.71875 262.039062 321.554688 262.351562 321.417969 262.675781 C 321.28125 263.003906 321.179688 263.339844 321.113281 263.683594 C 321.042969 264.03125 321.007812 264.378906 321.007812 264.734375 C 321.007812 265.085938 321.042969 265.4375 321.113281 265.78125 C 321.179688 266.128906 321.28125 266.464844 321.417969 266.792969 C 321.554688 267.117188 321.71875 267.425781 321.914062 267.722656 C 322.113281 268.015625 322.335938 268.285156 322.585938 268.535156 Z M 339.191406 259.535156 L 344.375 264.71875 L 339.191406 269.933594 L 334.003906 264.71875 Z M 339.191406 259.535156 " fill-opacity="1" fill-rule="nonzero"/><path fill="#23497d" d="M 374.738281 230.570312 C 374.488281 230.320312 374.21875 230.101562 373.925781 229.90625 C 373.632812 229.710938 373.324219 229.546875 373 229.414062 C 372.671875 229.277344 372.339844 229.179688 371.992188 229.109375 C 371.648438 229.042969 371.300781 229.007812 370.949219 229.007812 C 370.597656 229.007812 370.25 229.042969 369.90625 229.109375 C 369.558594 229.179688 369.226562 229.277344 368.898438 229.414062 C 368.574219 229.546875 368.265625 229.710938 367.972656 229.90625 C 367.679688 230.101562 367.410156 230.320312 367.160156 230.570312 L 354.34375 243.359375 C 354.09375 243.609375 353.871094 243.878906 353.675781 244.175781 C 353.476562 244.46875 353.3125 244.777344 353.175781 245.105469 C 353.042969 245.429688 352.941406 245.765625 352.871094 246.113281 C 352.800781 246.457031 352.769531 246.808594 352.769531 247.160156 C 352.769531 247.515625 352.800781 247.863281 352.871094 248.210938 C 352.941406 248.558594 353.042969 248.894531 353.175781 249.21875 C 353.3125 249.546875 353.476562 249.855469 353.675781 250.148438 C 353.871094 250.441406 354.09375 250.714844 354.34375 250.964844 L 367.160156 263.753906 C 367.410156 264 367.679688 264.222656 367.972656 264.417969 C 368.265625 264.613281 368.574219 264.777344 368.898438 264.910156 C 369.226562 265.042969 369.558594 265.144531 369.90625 265.214844 C 370.25 265.28125 370.597656 265.316406 370.949219 265.316406 C 371.300781 265.316406 371.648438 265.28125 371.992188 265.214844 C 372.339844 265.144531 372.671875 265.042969 373 264.910156 C 373.324219 264.777344 373.632812 264.613281 373.925781 264.417969 C 374.21875 264.222656 374.488281 264 374.738281 263.753906 L 387.554688 250.882812 C 387.804688 250.632812 388.027344 250.363281 388.222656 250.066406 C 388.417969 249.773438 388.585938 249.464844 388.71875 249.136719 C 388.855469 248.8125 388.957031 248.476562 389.027344 248.128906 C 389.09375 247.785156 389.128906 247.433594 389.128906 247.082031 C 389.128906 246.726562 389.09375 246.378906 389.027344 246.03125 C 388.957031 245.683594 388.855469 245.347656 388.71875 245.023438 C 388.585938 244.695312 388.417969 244.386719 388.222656 244.09375 C 388.027344 243.800781 387.804688 243.527344 387.554688 243.277344 Z M 370.949219 252.359375 L 365.761719 247.148438 L 370.949219 241.960938 L 376.132812 247.148438 Z M 370.949219 252.359375 " fill-opacity="1" fill-rule="nonzero"/><path fill="#23497d" d="M 405.554688 250.882812 C 406.269531 250.886719 406.957031 250.753906 407.621094 250.484375 C 408.28125 250.214844 408.863281 249.828125 409.371094 249.324219 L 422.160156 236.507812 C 422.667969 236.007812 423.054688 235.425781 423.332031 234.769531 C 423.605469 234.113281 423.742188 233.429688 423.746094 232.71875 C 423.746094 232.003906 423.609375 231.3125 423.335938 230.652344 C 423.0625 229.992188 422.667969 229.410156 422.160156 228.902344 L 409.371094 216.222656 C 409.117188 215.980469 408.84375 215.765625 408.546875 215.578125 C 408.25 215.390625 407.941406 215.230469 407.617188 215.101562 C 407.289062 214.972656 406.957031 214.875 406.613281 214.808594 C 406.265625 214.742188 405.921875 214.710938 405.570312 214.710938 C 405.21875 214.710938 404.871094 214.742188 404.527344 214.808594 C 404.183594 214.875 403.847656 214.972656 403.523438 215.101562 C 403.199219 215.230469 402.886719 215.390625 402.59375 215.578125 C 402.296875 215.765625 402.023438 215.980469 401.769531 216.222656 L 388.976562 229.011719 C 388.726562 229.261719 388.503906 229.53125 388.308594 229.824219 C 388.113281 230.121094 387.945312 230.429688 387.8125 230.753906 C 387.675781 231.082031 387.574219 231.417969 387.503906 231.765625 C 387.4375 232.109375 387.402344 232.460938 387.402344 232.8125 C 387.402344 233.167969 387.4375 233.515625 387.503906 233.863281 C 387.574219 234.207031 387.675781 234.542969 387.8125 234.871094 C 387.945312 235.199219 388.113281 235.507812 388.308594 235.800781 C 388.503906 236.09375 388.726562 236.367188 388.976562 236.617188 L 401.769531 249.433594 C 402.28125 249.910156 402.863281 250.277344 403.519531 250.527344 C 404.175781 250.78125 404.855469 250.898438 405.554688 250.882812 Z M 405.554688 227.507812 L 410.769531 232.71875 L 405.554688 237.90625 L 400.503906 232.828125 Z M 405.554688 227.507812 " fill-opacity="1" fill-rule="nonzero"/><path fill="#23497d" d="M 348.269531 197.144531 L 335.480469 209.960938 C 335.230469 210.210938 335.007812 210.480469 334.8125 210.777344 C 334.617188 211.070312 334.449219 211.378906 334.316406 211.707031 C 334.179688 212.03125 334.078125 212.367188 334.007812 212.714844 C 333.941406 213.058594 333.90625 213.410156 333.90625 213.761719 C 333.90625 214.117188 333.941406 214.464844 334.007812 214.8125 C 334.078125 215.160156 334.179688 215.496094 334.316406 215.820312 C 334.449219 216.148438 334.617188 216.457031 334.8125 216.75 C 335.007812 217.042969 335.230469 217.316406 335.480469 217.566406 L 348.269531 230.355469 C 348.773438 230.855469 349.355469 231.238281 350.011719 231.507812 C 350.667969 231.777344 351.351562 231.914062 352.058594 231.914062 C 352.773438 231.917969 353.460938 231.785156 354.121094 231.515625 C 354.785156 231.246094 355.367188 230.859375 355.875 230.355469 L 368.664062 217.566406 C 369.171875 217.058594 369.5625 216.476562 369.839844 215.816406 C 370.113281 215.15625 370.25 214.464844 370.25 213.75 C 370.246094 213.039062 370.109375 212.355469 369.832031 211.699219 C 369.558594 211.042969 369.167969 210.460938 368.664062 209.960938 L 355.875 197.144531 C 355.625 196.894531 355.355469 196.671875 355.0625 196.476562 C 354.765625 196.277344 354.457031 196.113281 354.132812 195.976562 C 353.804688 195.84375 353.46875 195.742188 353.121094 195.671875 C 352.777344 195.601562 352.425781 195.570312 352.074219 195.570312 C 351.71875 195.570312 351.371094 195.601562 351.023438 195.671875 C 350.679688 195.742188 350.339844 195.84375 350.015625 195.976562 C 349.6875 196.113281 349.378906 196.277344 349.085938 196.476562 C 348.792969 196.671875 348.519531 196.894531 348.269531 197.144531 Z M 352.140625 218.960938 L 346.765625 213.75 L 352.140625 208.5625 L 357.351562 213.75 Z M 352.140625 218.960938 " fill-opacity="1" fill-rule="nonzero"/><path fill="#23497d" d="M 390.1875 184.355469 C 389.933594 184.113281 389.65625 183.898438 389.363281 183.710938 C 389.066406 183.523438 388.757812 183.363281 388.429688 183.234375 C 388.105469 183.105469 387.769531 183.007812 387.425781 182.941406 C 387.082031 182.875 386.734375 182.84375 386.386719 182.84375 C 386.035156 182.84375 385.6875 182.875 385.34375 182.941406 C 385 183.007812 384.664062 183.105469 384.339844 183.234375 C 384.015625 183.363281 383.703125 183.523438 383.40625 183.710938 C 383.113281 183.898438 382.839844 184.113281 382.582031 184.355469 L 369.792969 197.144531 C 369.542969 197.394531 369.320312 197.664062 369.125 197.960938 C 368.929688 198.253906 368.761719 198.5625 368.628906 198.886719 C 368.492188 199.214844 368.390625 199.550781 368.320312 199.898438 C 368.253906 200.242188 368.21875 200.59375 368.21875 200.945312 C 368.21875 201.300781 368.253906 201.648438 368.320312 201.996094 C 368.390625 202.34375 368.492188 202.679688 368.628906 203.003906 C 368.761719 203.332031 368.929688 203.640625 369.125 203.933594 C 369.320312 204.226562 369.542969 204.5 369.792969 204.75 L 382.582031 217.566406 C 382.832031 217.816406 383.105469 218.039062 383.398438 218.234375 C 383.691406 218.429688 384 218.597656 384.328125 218.730469 C 384.652344 218.867188 384.988281 218.96875 385.335938 219.039062 C 385.683594 219.105469 386.03125 219.140625 386.386719 219.140625 C 386.738281 219.140625 387.089844 219.105469 387.433594 219.039062 C 387.78125 218.96875 388.117188 218.867188 388.441406 218.730469 C 388.769531 218.597656 389.078125 218.429688 389.371094 218.234375 C 389.667969 218.039062 389.9375 217.816406 390.1875 217.566406 L 402.976562 204.75 C 403.226562 204.5 403.449219 204.226562 403.644531 203.933594 C 403.84375 203.640625 404.007812 203.332031 404.144531 203.003906 C 404.277344 202.679688 404.378906 202.34375 404.449219 201.996094 C 404.519531 201.648438 404.554688 201.300781 404.554688 200.945312 C 404.554688 200.59375 404.519531 200.242188 404.449219 199.898438 C 404.378906 199.550781 404.277344 199.214844 404.144531 198.886719 C 404.007812 198.5625 403.84375 198.253906 403.644531 197.960938 C 403.449219 197.664062 403.226562 197.394531 402.976562 197.144531 Z M 386.398438 206.144531 L 381.1875 200.960938 L 386.398438 195.746094 L 391.585938 200.960938 Z M 386.398438 206.144531 " fill-opacity="1" fill-rule="nonzero"/><g clip-path="url(#00cadd1fe8)"><path fill="#23497d" d="M 1155.835938 503.523438 L 1139.234375 503.523438 L 1139.234375 470.320312 C 1139.234375 467.832031 1137.574219 466.171875 1135.085938 466.171875 L 1039.636719 466.171875 L 1039.636719 445.421875 L 1064.535156 445.421875 C 1067.027344 445.421875 1068.6875 443.761719 1068.6875 441.273438 L 1068.6875 391.472656 C 1068.6875 390.226562 1068.269531 389.398438 1067.441406 388.566406 L 1042.542969 363.667969 C 1041.710938 362.835938 1040.882812 362.421875 1039.636719 362.421875 L 1006.4375 362.421875 C 1003.945312 362.421875 1002.285156 364.082031 1002.285156 366.570312 L 1002.285156 441.273438 C 1002.285156 443.761719 1003.945312 445.421875 1006.4375 445.421875 L 1031.335938 445.421875 L 1031.335938 466.171875 L 935.886719 466.171875 C 933.394531 466.171875 931.734375 467.832031 931.734375 470.320312 L 931.734375 503.523438 L 915.136719 503.523438 C 912.644531 503.523438 910.984375 505.183594 910.984375 507.671875 L 910.984375 549.171875 C 910.984375 551.660156 912.644531 553.320312 915.136719 553.320312 L 956.636719 553.320312 C 959.125 553.320312 960.785156 551.660156 960.785156 549.171875 L 960.785156 507.671875 C 960.785156 505.183594 959.125 503.523438 956.636719 503.523438 L 940.035156 503.523438 L 940.035156 474.472656 L 981.535156 474.472656 L 981.535156 561.621094 L 964.9375 561.621094 C 962.445312 561.621094 960.785156 563.28125 960.785156 565.773438 L 960.785156 607.273438 C 960.785156 609.761719 962.445312 611.421875 964.9375 611.421875 L 1006.4375 611.421875 C 1008.925781 611.421875 1010.585938 609.761719 1010.585938 607.273438 L 1010.585938 565.773438 C 1010.585938 563.28125 1008.925781 561.621094 1006.4375 561.621094 L 989.835938 561.621094 L 989.835938 474.472656 L 1031.335938 474.472656 L 1031.335938 503.523438 L 1014.734375 503.523438 C 1012.246094 503.523438 1010.585938 505.183594 1010.585938 507.671875 L 1010.585938 549.171875 C 1010.585938 551.660156 1012.246094 553.320312 1014.734375 553.320312 L 1056.234375 553.320312 C 1058.726562 553.320312 1060.386719 551.660156 1060.386719 549.171875 L 1060.386719 507.671875 C 1060.386719 505.183594 1058.726562 503.523438 1056.234375 503.523438 L 1039.636719 503.523438 L 1039.636719 474.472656 L 1081.136719 474.472656 L 1081.136719 561.621094 L 1064.535156 561.621094 C 1062.046875 561.621094 1060.386719 563.28125 1060.386719 565.773438 L 1060.386719 607.273438 C 1060.386719 609.761719 1062.046875 611.421875 1064.535156 611.421875 L 1106.035156 611.421875 C 1108.527344 611.421875 1110.1875 609.761719 1110.1875 607.273438 L 1110.1875 565.773438 C 1110.1875 563.28125 1108.527344 561.621094 1106.035156 561.621094 L 1089.4375 561.621094 L 1089.4375 474.472656 L 1130.9375 474.472656 L 1130.9375 503.523438 L 1114.335938 503.523438 C 1111.847656 503.523438 1110.1875 505.183594 1110.1875 507.671875 L 1110.1875 549.171875 C 1110.1875 551.660156 1111.847656 553.320312 1114.335938 553.320312 L 1155.835938 553.320312 C 1158.324219 553.320312 1159.984375 551.660156 1159.984375 549.171875 L 1159.984375 507.671875 C 1159.984375 505.183594 1158.324219 503.523438 1155.835938 503.523438 Z M 1010.585938 370.722656 L 1035.484375 370.722656 L 1035.484375 391.472656 C 1035.484375 393.960938 1037.144531 395.621094 1039.636719 395.621094 L 1060.386719 395.621094 L 1060.386719 437.121094 L 1010.585938 437.121094 Z M 948.335938 540.871094 L 923.4375 540.871094 L 923.4375 532.570312 L 948.335938 532.570312 Z M 948.335938 524.273438 L 923.4375 524.273438 L 923.4375 515.972656 L 948.335938 515.972656 Z M 998.136719 598.972656 L 973.234375 598.972656 L 973.234375 590.671875 L 998.136719 590.671875 Z M 998.136719 582.371094 L 973.234375 582.371094 L 973.234375 574.070312 L 998.136719 574.070312 Z M 1047.9375 540.871094 L 1023.035156 540.871094 L 1023.035156 532.570312 L 1047.9375 532.570312 Z M 1047.9375 524.273438 L 1023.035156 524.273438 L 1023.035156 515.972656 L 1047.9375 515.972656 Z M 1097.734375 598.972656 L 1072.835938 598.972656 L 1072.835938 590.671875 L 1097.734375 590.671875 Z M 1097.734375 582.371094 L 1072.835938 582.371094 L 1072.835938 574.070312 L 1097.734375 574.070312 Z M 1147.535156 540.871094 L 1122.636719 540.871094 L 1122.636719 532.570312 L 1147.535156 532.570312 Z M 1147.535156 524.273438 L 1122.636719 524.273438 L 1122.636719 515.972656 L 1147.535156 515.972656 Z M 1147.535156 524.273438 " fill-opacity="1" fill-rule="nonzero"/></g><path fill="#23497d" d="M 1018.886719 403.921875 L 1052.085938 403.921875 L 1052.085938 412.222656 L 1018.886719 412.222656 Z M 1018.886719 403.921875 " fill-opacity="1" fill-rule="nonzero"/><path fill="#23497d" d="M 1018.886719 420.523438 L 1052.085938 420.523438 L 1052.085938 428.820312 L 1018.886719 428.820312 Z M 1018.886719 420.523438 " fill-opacity="1" fill-rule="nonzero"/></svg>